<?xml version="1.0" standalone="no"?>
<!DOCTYPE svg PUBLIC "-//W3C//DTD SVG 20010904//EN" "http://www.w3.org/TR/2001/REC-SVG-20010904/DTD/svg10.dtd">
<svg xmlns="http://www.w3.org/2000/svg" version="1.0" width="512.000000pt" height="512.000000pt" viewBox="0 0 512.000000 512.000000" preserveAspectRatio="xMidYMid meet" fill="#530030">

<g transform="translate(0.000000,512.000000) scale(0.100000,-0.100000)" fill="#530030" stroke="none">
<path d="M2492 3973 c-55 -80 -452 -753 -452 -767 0 -13 11 -16 58 -16 67 0 88 -10 78 -36 -4 -11 -63 -116 -132 -235 -68 -119 -124 -223 -124 -232 0 -19 21 -27 76 -27 30 0 44 -4 44 -14 0 -7 -23 -53 -51 -102 -29 -49 -88 -152 -132 -228 -43 -77 -90 -157 -103 -178 -13 -21 -24 -44 -24 -52 0 -20 32 -28 75 -20 42 8 105 -3 105 -18 0 -11 -31 -66 -185 -331 -55 -96 -94 -172 -89 -177 5 -5 145 -10 312 -12 256 -3 304 -5 312 -18 5 -8 10 -95 10 -192 0 -147 3 -179 16 -192 13 -14 48 -16 230 -16 129 0 223 4 235 10 18 10 19 23 19 188 0 138 3 183 14 198 14 18 31 19 320 22 257 2 306 5 306 17 0 12 -58 119 -129 237 -71 118 -141 248 -141 261 0 14 11 17 69 17 117 0 121 7 62 108 -97 169 -122 213 -142 249 -12 21 -46 80 -76 131 -30 50 -51 97 -48 102 3 6 31 10 61 10 88 0 91 -10 -67 260 -124 212 -139 243 -127 257 6 8 34 13 69 13 32 0 61 5 64 11 9 13 -464 799 -481 799 -7 0 -21 -12 -32 -27z"/>
<path d="M1282 2994 c-94 -158 -169 -291 -166 -295 3 -5 25 -9 49 -9 24 0 46 -4 49 -8 3 -5 -39 -87 -94 -182 -54 -96 -97 -177 -94 -182 3 -4 23 -8 45 -8 28 0 39 -4 39 -15 0 -8 -49 -100 -110 -205 -60 -105 -110 -196 -110 -201 0 -5 27 -9 60 -9 75 0 81 -11 42 -76 -66 -109 -172 -297 -172 -305 0 -5 96 -9 214 -9 118 0 221 -3 230 -6 13 -5 16 -27 16 -134 0 -71 3 -135 6 -144 5 -14 30 -16 173 -16 117 0 171 4 179 12 8 8 12 52 12 130 0 115 -1 119 -24 128 -32 12 -66 57 -66 88 0 14 53 118 119 234 113 196 118 208 95 208 -38 0 -91 26 -104 51 -22 40 -4 91 84 241 47 81 86 151 86 156 0 4 -29 59 -65 121 -36 62 -62 117 -59 122 3 5 25 9 49 9 53 0 64 13 38 48 -10 15 -88 143 -173 285 -85 141 -160 257 -166 257 -6 0 -88 -129 -182 -286z"/>
<path d="M3378 3000 c-93 -154 -168 -287 -168 -295 0 -11 12 -15 50 -15 28 0 50 -5 50 -10 0 -6 -27 -58 -60 -116 l-60 -106 82 -142 c116 -201 121 -211 113 -244 -9 -41 -46 -73 -94 -79 -23 -3 -41 -7 -41 -9 0 -6 212 -369 221 -378 5 -6 9 -29 9 -52 0 -51 -29 -91 -73 -99 l-32 -6 -3 -102 c-2 -57 1 -114 7 -130 l11 -27 172 2 173 3 3 134 c1 79 7 140 14 148 8 10 61 13 229 13 148 0 219 3 219 11 0 5 -45 89 -101 185 -55 95 -97 178 -94 184 3 5 33 10 66 10 38 0 59 4 59 11 0 7 -19 44 -41 83 -136 232 -179 311 -179 323 0 9 13 13 39 13 22 0 43 4 46 10 3 5 -20 54 -51 107 -161 277 -157 263 -84 263 28 0 50 5 50 10 0 19 -342 580 -353 580 -7 0 -87 -126 -179 -280z"/>
</g>
</svg>
