<?xml version="1.0" encoding="UTF-8"?>
<svg xmlns="http://www.w3.org/2000/svg" version="1.1" width="980" height="602" fill="#fea640">
<path d="M0 0 C20.91801852 0.00454111 41.83603156 0.00368637 62.75404999 -0.00090924 C87.55612854 -0.0063412 112.35820388 -0.00834781 137.16028294 -0.00529698 C139.8325311 -0.00497664 142.50477927 -0.0046643 145.17702743 -0.00435391 C146.48911242 -0.00419964 147.80119741 -0.00404536 149.15304255 -0.00388641 C158.10143499 -0.00304724 167.04982521 -0.00444553 175.99821731 -0.00683346 C226.97598792 -0.01919652 277.95015721 0.07486017 328.92606032 0.54383039 C332.31595466 0.57478019 335.70585785 0.60453208 339.09576461 0.63408694 C378.50527913 0.98340573 378.50527913 0.98340573 393.74571869 1.56644306 C394.64888702 1.59885849 395.55205536 1.63127391 396.48259243 1.66467163 C415.47019666 2.53401764 432.11235865 12.02674652 446.2823703 24.12946185 C447.27623749 24.97057514 447.27623749 24.97057514 448.2901828 25.8286806 C459.54395669 36.21879278 470.99921259 53.31209955 472.18468709 68.87069499 C472.33967238 72.94277222 472.31265579 77.00200081 472.25786468 81.07584247 C472.26279794 82.92744404 472.2712438 84.77903894 472.28285417 86.63061067 C472.30443789 91.67127453 472.27668507 96.71059596 472.24021336 101.75112852 C472.20958578 107.20608416 472.22555559 112.66093771 472.23558685 118.11594257 C472.24800147 128.7863384 472.21814449 139.45621282 472.17413561 150.12650861 C472.1245735 162.57725095 472.11891829 175.02790004 472.11532809 187.47872643 C472.10758364 209.71576436 472.06278046 231.95259177 471.99574921 254.18952045 C471.93089587 275.71492035 471.88830041 297.24019884 471.87270233 318.76569232 C471.87221625 319.42813883 471.87173016 320.09058533 471.87122935 320.77310598 C471.86683867 326.76713084 471.86254807 332.76115578 471.85832775 338.75518077 C471.84229648 360.57694656 471.8077897 382.39868829 471.77105543 404.2204276 C471.76279255 409.17480775 471.75534433 414.12918811 471.74861071 419.08357057 C471.73067937 432.11343511 471.70684311 445.1432414 471.66547863 458.17305507 C471.64844683 463.55563095 471.63418598 468.93816808 471.62844726 474.32076892 C471.58443546 511.33543869 471.58443546 511.33543869 470.44774505 527.6359621 C470.34464458 529.16451393 470.34464458 529.16451393 470.23946127 530.72394559 C468.48858914 551.80113474 458.98535808 566.93348652 443.2276828 580.7818056 C434.46882711 587.76333381 424.60639223 592.87213322 414.2823703 597.12946185 C413.4883078 597.45946185 412.6942453 597.78946185 411.8761203 598.12946185 C406.66197359 599.9865552 401.48711074 600.41687457 395.99273369 600.68419704 C395.19886921 600.7251817 394.40500473 600.76616636 393.58708375 600.80839298 C385.59507347 601.1997405 377.6044391 601.35238337 369.60405609 601.44119892 C367.97985014 601.46172143 366.35564612 601.48239775 364.73144385 601.50320992 C360.24909138 601.55878677 355.76669037 601.60758563 351.28423375 601.65393591 C348.35292889 601.68424931 345.42163765 601.71571536 342.49034497 601.74718317 C282.25064965 602.38176999 222.00583751 602.27657901 161.7635982 602.26476226 C149.56063302 602.26241481 137.35766916 602.26217784 125.15470383 602.26327762 C123.83552524 602.2633922 123.83552524 602.2633922 122.48969658 602.26350909 C118.91656855 602.26382061 115.34344052 602.26413903 111.77031249 602.26446885 C78.55832543 602.2674977 45.34634111 602.2648014 12.13435447 602.25937196 C-17.18447244 602.25461542 -46.50329501 602.25506644 -75.82212189 602.25983295 C-109.04005252 602.26521579 -142.25798076 602.26729656 -175.47591177 602.26422068 C-179.03050759 602.26390012 -182.58510342 602.26358727 -186.13969925 602.26327762 C-187.01444274 602.26319854 -187.88918623 602.26311947 -188.7904371 602.26303799 C-201.84226549 602.26191349 -214.89409212 602.26320582 -227.94592026 602.26575717 C-242.80037512 602.26864708 -257.65482504 602.26783691 -272.5092793 602.26247643 C-280.0510991 602.25984268 -287.59291091 602.25864323 -295.13473061 602.26212558 C-324.19344732 602.27464111 -353.24596114 602.17588506 -382.30097321 601.6838747 C-384.07426016 601.65474605 -384.07426016 601.65474605 -385.8833711 601.62502895 C-397.67943322 601.42590961 -409.46783938 601.14815604 -421.25538948 600.64949855 C-422.62535078 600.59223593 -422.62535078 600.59223593 -424.02298807 600.53381648 C-450.51543566 599.33035848 -470.61702298 593.14195445 -489.23764923 573.52838764 C-503.09139398 558.13792499 -510.25188198 542.35962653 -509.99419525 521.6873537 C-510.00646596 519.69773809 -510.02308089 517.70814544 -510.04360577 515.71859786 C-510.08691186 510.30593225 -510.06875167 504.89502816 -510.03953543 499.48233399 C-510.01883937 493.62386826 -510.05599454 487.76571355 -510.08541229 481.9073244 C-510.13358185 470.45181496 -510.12789718 458.99694901 -510.1023109 447.54139064 C-510.0824104 438.22513444 -510.0815421 428.90904116 -510.09472588 419.59277591 C-510.09608934 418.5969777 -510.09608934 418.5969777 -510.09748035 417.58106235 C-510.10117601 414.88564466 -510.10493124 412.19022708 -510.1087917 409.49480962 C-510.14453155 384.24917296 -510.12133522 359.00388883 -510.0720586 333.75829164 C-510.02875024 311.37283715 -510.04006409 288.98802582 -510.09678009 266.60260639 C-510.16045713 241.40379694 -510.18799164 216.20535438 -510.1593065 191.00646827 C-510.1563458 188.31557203 -510.1534815 185.62467571 -510.1506646 182.93377933 C-510.14957957 181.94006062 -510.14957957 181.94006062 -510.14847263 180.92626678 C-510.1382456 170.9618928 -510.15548863 160.9978118 -510.18631294 151.03348789 C-510.220773 139.69149664 -510.21580017 128.35032625 -510.16127682 117.00840066 C-510.1344874 111.2291282 -510.12478916 105.4512556 -510.16347244 99.67201862 C-510.43924147 54.97990661 -510.43924147 54.97990661 -497.7176297 39.12946185 C-496.73689197 37.81753632 -495.75772544 36.50443451 -494.78025654 35.19007167 C-484.63670391 21.75223711 -470.09205287 11.69231339 -454.4676297 5.69196185 C-453.83059113 5.44486469 -453.19355255 5.19776752 -452.53720978 4.94318256 C-444.28173929 1.96407607 -435.64110956 1.96723219 -426.95325592 1.83255634 C-425.90852954 1.81326674 -424.86380315 1.79397714 -423.7874184 1.77410302 C-420.31125824 1.71174409 -416.83503257 1.65626869 -413.35874298 1.60162982 C-412.1332248 1.58119672 -410.90770661 1.56076362 -409.64505151 1.53971133 C-378.72562891 1.02530461 -347.80397861 0.7801122 -316.88113508 0.58977821 C-314.42640166 0.57456729 -311.97167062 0.55901502 -309.51693991 0.54337415 C-216.68846839 -0.04637059 -123.85813779 -0.02180475 0 0 Z M-411.7176297 59.12946185 C-410.76026245 60.25767503 -409.80129627 61.38453154 -408.84165314 62.51080951 C-408.30779999 63.13847217 -407.77394684 63.76613483 -407.22391632 64.41281757 C-405.58687356 66.2784785 -403.87118244 67.91255271 -401.9676297 69.50446185 C-398.83957335 72.1668915 -395.76358844 74.8731495 -392.7176297 77.62946185 C-387.38200334 82.43960987 -382.0017609 87.18926423 -376.5301297 91.8443056 C-370.77498317 96.7452039 -365.06852494 101.67124456 -359.5301297 106.81696185 C-355.88349594 110.20470559 -352.16145569 113.44843982 -348.2801297 116.56696185 C-343.50141343 120.41056243 -339.02605283 124.49906349 -334.55381134 128.68781146 C-331.20663643 131.8050013 -327.78757947 134.76519983 -324.2176297 137.62946185 C-319.45654493 141.44940197 -315.00489945 145.51885005 -310.5535672 149.6880556 C-307.20646101 152.80514739 -303.78748829 155.76527298 -300.2176297 158.62946185 C-296.0509676 161.97248145 -292.11343158 165.48061323 -288.2176297 169.12946185 C-283.45673976 173.58820629 -278.5529515 177.76744015 -273.46372345 181.8521181 C-269.92084671 184.79023637 -266.56321198 187.91177363 -263.19565704 191.04596576 C-259.98446097 194.01676252 -256.69126129 196.82914506 -253.2801297 199.56696185 C-248.50221632 203.40991664 -244.02767986 207.49777515 -239.55600861 211.6856142 C-235.34333865 215.6085304 -230.95349415 219.2485721 -226.46372345 222.8521181 C-223.45443823 225.34772733 -220.57825948 227.9671299 -217.7176297 230.62946185 C-213.10764027 234.91906592 -208.33979455 238.93357308 -203.43247345 242.8833681 C-199.65195684 246.01113365 -196.07282095 249.34220069 -192.46372345 252.6646181 C-189.79887804 255.05653483 -187.06931145 257.32201069 -184.2801297 259.56696185 C-179.74526809 263.22452449 -175.46226788 267.07563213 -171.20053986 271.04108295 C-167.08983694 274.84344992 -162.79487386 278.37216777 -158.43247345 281.8833681 C-154.65195684 285.01113365 -151.07282095 288.34220069 -147.46372345 291.6646181 C-144.79887804 294.05653483 -142.06931145 296.32201069 -139.2801297 298.56696185 C-134.74526809 302.22452449 -130.46226788 306.07563213 -126.20053986 310.04108295 C-122.08983694 313.84344992 -117.79487386 317.37216777 -113.43247345 320.8833681 C-110.61089475 323.21776775 -107.91172258 325.64936784 -105.2176297 328.12946185 C-100.84592507 332.14920721 -96.33976084 335.92934381 -91.72153595 339.66071185 C-86.25460501 344.15369021 -80.95087179 348.83692248 -75.61411408 353.48297748 C-72.06802574 356.5616103 -68.49998573 359.61457469 -64.93076447 362.66632709 C-61.95020661 365.21488335 -58.97518248 367.76936051 -56.01059845 370.3364931 C-52.59773339 373.28913575 -49.16669653 376.2192056 -45.7176297 379.12946185 C-44.94548126 379.78301654 -44.17333283 380.43657123 -43.37778595 381.1099306 C-35.28055849 387.60374669 -25.73214052 389.6703398 -15.4754422 388.87946185 C-5.30708245 387.56438531 1.54317079 384.26183145 9.0948703 377.44196185 C10.31397324 376.36796685 11.53403589 375.29506029 12.75502655 374.22321185 C13.64858856 373.4343056 13.64858856 373.4343056 14.56020233 372.62946185 C17.00059555 370.50389112 19.51244906 368.47219627 22.0323703 366.44196185 C26.40744777 362.89200864 30.58786222 359.17382365 34.7511203 355.37946185 C38.26036516 352.26013309 41.91399153 349.33197053 45.5636203 346.37946185 C49.06145181 343.48470475 52.40022434 340.43356647 55.75502655 337.3755556 C58.35199423 335.06758588 61.01641043 332.87390323 63.7198703 330.69196185 C68.49521432 326.8300451 73.01904715 322.75271962 77.53627655 318.5943056 C80.20112196 316.20238888 82.93068855 313.93691302 85.7198703 311.69196185 C89.71461016 308.47003084 93.52791379 305.1229069 97.2823703 301.62946185 C101.89241366 297.33991073 106.66019986 293.32535513 111.56752655 289.3755556 C114.38910525 287.04115596 117.08827742 284.60955587 119.7823703 282.12946185 C123.33907274 278.85527762 126.95398841 275.72303752 130.7198703 272.69196185 C134.71461016 269.47003084 138.52791379 266.1229069 142.2823703 262.62946185 C146.89241366 258.33991073 151.66019986 254.32535513 156.56752655 250.3755556 C159.38910525 248.04115596 162.08827742 245.60955587 164.7823703 243.12946185 C168.33907274 239.85527762 171.95398841 236.72303752 175.7198703 233.69196185 C180.2563376 230.03310416 184.5410313 226.18077222 188.80385467 222.21344623 C192.01518258 219.24244996 195.30855819 216.42992353 198.7198703 213.69196185 C202.90474337 210.3259992 206.86551428 206.79770168 210.7823703 203.12946185 C215.54328364 198.6707399 220.44704593 194.49148562 225.53627655 190.4068056 C228.54555987 187.91119795 231.42177316 185.29182704 234.2823703 182.62946185 C237.99098718 179.17784249 241.76742925 175.86424037 245.7198703 172.69196185 C250.49858657 168.84836128 254.97394717 164.75986022 259.44618866 160.57111225 C263.63566556 156.66949516 268.00409966 153.05621388 272.4698703 149.47321185 C275.68086835 146.79738015 278.73266167 143.98587909 281.7823703 141.12946185 C286.52103494 136.69113511 291.40356356 132.53803936 296.4698703 128.47321185 C300.26401159 125.31142745 303.84520795 121.94400821 307.44863006 118.56867084 C310.7739183 115.47166101 314.16956969 112.53324502 317.7198703 109.69196185 C322.74239536 105.66370668 327.40980697 101.3346914 332.09291717 96.92438373 C335.53363247 93.70176842 339.03217494 90.63444686 342.7198703 87.69196185 C348.03585624 83.43760033 352.97030991 78.83633561 357.91762421 74.16559467 C361.81310608 70.48871107 365.75457492 66.89995732 369.86440155 63.4614931 C371.5404926 61.98781443 371.5404926 61.98781443 373.2823703 59.12946185 C297.3756128 58.29840346 221.47787998 57.97631857 145.56685169 57.9941624 C135.28043729 57.99653091 124.99402446 57.99673666 114.70760986 57.99564609 C113.95994801 57.9955697 113.21228617 57.99549332 112.4419679 57.99541462 C109.40216939 57.99510296 106.36237088 57.99478453 103.32257238 57.99445486 C75.16438302 57.99143811 47.00619691 57.99410029 18.84800806 57.99955175 C-5.81563726 58.00429054 -30.4792774 58.00386937 -55.14292267 57.99909076 C-83.26431119 57.99365957 -111.38569686 57.99165453 -139.50708583 57.99470302 C-142.54059262 57.99502344 -145.57409941 57.9953363 -148.6076062 57.99564609 C-149.35379191 57.99572517 -150.09997762 57.99580424 -150.86877501 57.99588572 C-161.11084322 57.99692083 -171.35290952 57.99607008 -181.59497746 57.99366029 C-198.79504407 57.98966779 -215.99510397 57.99056296 -233.19516876 58.00006732 C-235.15869595 58.00114699 -235.15869595 58.00114699 -237.16189036 58.00224847 C-295.35050502 58.03875046 -353.53246853 58.51915437 -411.7176297 59.12946185 Z M-451.7176297 117.12946185 C-451.7176297 241.53946185 -451.7176297 365.94946185 -451.7176297 494.12946185 C-446.30926862 489.54426184 -446.30926862 489.54426184 -441.18966034 484.72733364 C-440.27651361 483.81809853 -440.27651361 483.81809853 -439.34491947 482.89049503 C-438.3788019 481.92103138 -438.3788019 481.92103138 -437.39316681 480.93198261 C-436.68975379 480.23012958 -435.98634077 479.52827655 -435.26161221 478.80515525 C-432.92035708 476.46786821 -430.58266814 474.12704781 -428.24497345 471.78620014 C-426.56094579 470.10352839 -424.87670566 468.42106926 -423.19226959 466.73880634 C-419.10148897 462.65210559 -415.01304751 458.56307601 -410.92575887 454.47288297 C-407.60164251 451.14650291 -404.27654492 447.82110665 -400.95075348 444.4964014 C-400.23916451 443.78504228 -400.23916451 443.78504228 -399.51320001 443.05931228 C-398.5492891 442.0957211 -397.58537595 441.13213217 -396.62146059 440.16854544 C-387.59410268 431.14403544 -378.56980585 422.11646945 -369.54656187 413.08784635 C-361.81593025 405.35274877 -354.08268266 397.62027467 -346.34751251 389.88971576 C-337.35146716 380.89903084 -328.35705778 371.90671439 -319.36522511 362.91181609 C-318.40498746 361.95125992 -317.44474774 360.99070583 -316.48450592 360.03015384 C-316.01212885 359.5576225 -315.53975179 359.08509116 -315.05306026 358.59824068 C-311.73545523 355.27977479 -308.41669654 351.9624654 -305.097482 348.64560947 C-300.62351462 344.17453759 -296.15201373 339.70101337 -291.68237808 335.2256113 C-290.044599 333.58651354 -288.40597498 331.94825951 -286.76643112 330.310927 C-284.52265697 328.06989956 -282.2820082 325.82579156 -280.04209259 323.58090839 C-279.39801421 322.93906073 -278.75393583 322.29721307 -278.09033993 321.63591549 C-274.29956032 317.82889742 -270.69997274 313.90328649 -267.19448784 309.83169219 C-265.52429224 307.90662062 -263.78212028 306.07905252 -261.97153595 304.28571185 C-261.36245392 303.67985248 -260.75337189 303.0739931 -260.12583283 302.44977435 C-259.51675079 301.84907123 -258.90766876 301.2483681 -258.2801297 300.62946185 C-257.64397736 299.99782123 -257.00782501 299.3661806 -256.35239533 298.71539935 C-254.80980164 297.18440412 -253.26405656 295.65658518 -251.7176297 294.12946185 C-255.10990743 287.00567863 -261.68510053 282.05550167 -267.5848172 276.9771181 C-269.99139791 274.89229636 -272.35527915 272.76424653 -274.7176297 270.62946185 C-280.05325607 265.81931384 -285.43349851 261.06965948 -290.9051297 256.4146181 C-297.17796443 251.07287313 -303.35685037 245.6678164 -309.39292267 240.05963764 C-312.53266087 237.16197961 -315.75929459 234.42599613 -319.0926297 231.75446185 C-324.13099164 227.70344462 -328.8206773 223.35722628 -333.5235379 218.9290224 C-337.83972127 214.88691993 -342.32257469 211.13358077 -346.94028595 207.4380556 C-350.14205769 204.77666728 -353.17997888 201.97483939 -356.2176297 199.12946185 C-360.11339251 195.48057736 -364.05097255 191.97247748 -368.2176297 188.62946185 C-372.3842918 185.28644226 -376.32182782 181.77831048 -380.2176297 178.12946185 C-384.97851964 173.67071742 -389.8823079 169.49148356 -394.97153595 165.4068056 C-398.51520714 162.4680285 -401.87365472 159.34583837 -405.24179962 156.21076068 C-408.43104889 153.25999839 -411.70136876 150.46945962 -415.0926297 147.75446185 C-420.12405695 143.70902035 -424.80870501 139.37019694 -429.50376251 134.94660053 C-433.98080564 130.75199924 -438.60137913 126.84156907 -443.4129422 123.0318056 C-445.7176297 121.12946185 -445.7176297 121.12946185 -447.8973172 118.8833681 C-449.53637129 116.89817868 -449.53637129 116.89817868 -451.7176297 117.12946185 Z M405.3448703 123.56696185 C401.57034393 127.0814778 397.73763155 130.4525703 393.7198703 133.69196185 C389.27243581 137.28145153 385.02830039 141.03774641 380.8058078 144.88727435 C378.23154671 147.17462089 375.58947541 149.34494456 372.9073703 151.50446185 C368.35376317 155.18582874 364.04654514 159.05720658 359.76332733 163.04303607 C355.67594315 166.82422938 351.40202857 170.32628853 347.0636203 173.81696185 C344.04217842 176.32917196 341.15795257 178.95347012 338.2823703 181.62946185 C334.54907552 185.10363335 330.75866187 188.4301468 326.7823703 191.62946185 C321.66991045 195.74598796 316.85660476 200.12175025 312.04408905 204.5786806 C307.49485766 208.78044595 302.81869946 212.82388698 298.1026828 216.8364931 C292.34558329 221.74071864 286.63594215 226.66875773 281.0948703 231.81696185 C277.44823654 235.20470559 273.72619629 238.44843982 269.8448703 241.56696185 C264.42824582 245.92687491 259.36298734 250.60422065 254.2823703 255.3443056 C251.32361008 258.10292525 248.29841945 260.77557511 245.23940155 263.4224306 C242.8967788 265.46579616 240.58963608 267.54627045 238.2823703 269.62946185 C235.34558565 272.28060179 232.39634488 274.91236356 229.4073703 277.50446185 C223.93310629 282.26909904 218.61842146 287.21140137 213.2823703 292.12946185 C215.2701823 294.47406063 217.26997464 296.80602356 219.2823703 299.12946185 C220.13979828 300.12236225 220.13979828 300.12236225 221.01454803 301.13532123 C228.58837322 309.72398024 236.77671555 317.69853085 244.9073703 325.75446185 C247.84005203 328.66032027 250.76923968 331.56963823 253.6964328 334.48102435 C254.35390503 335.13019824 255.01137726 335.77937213 255.68877289 336.44821796 C258.62658951 339.37065801 261.46900628 342.31161349 264.13759491 345.48270282 C269.85883554 352.04868219 276.12019693 358.10658087 282.27992889 364.25641498 C283.69824685 365.6760896 285.11635233 367.09597652 286.53426239 368.51605853 C290.3661726 372.35250854 294.20121594 376.18581189 298.03698561 380.01840267 C302.05254187 384.03142091 306.06565074 388.04688543 310.07915375 392.06195697 C316.81062289 398.79524213 323.54419093 405.52642291 330.27895233 412.25641498 C338.07501641 420.04702205 345.8674506 427.84124597 353.65803918 435.63732824 C360.34759867 442.33141662 367.03909345 449.02356576 373.73222861 455.71407899 C377.72998532 459.71027368 381.72705605 463.70714819 385.72238418 467.70577106 C389.47117504 471.45743788 393.22237931 475.20667432 396.97550842 478.95400104 C398.35631788 480.33348208 399.73626568 481.71382618 401.11531326 483.09506854 C402.98872562 484.97118883 404.86515073 486.84424099 406.74242279 488.71649799 C407.5713361 489.54875738 407.5713361 489.54875738 408.41699514 490.3978301 C410.49951578 492.97139276 410.49951578 492.97139276 413.2823703 494.12946185 C413.3052606 447.80083805 413.32288071 401.47221484 413.33343563 355.14358649 C413.33468633 349.673709 413.33598065 344.20383152 413.33730194 338.73395404 C413.33756425 337.64500275 413.33782656 336.55605147 413.33809682 335.43410166 C413.34244778 317.80340467 413.35033219 300.17271095 413.3595231 282.5420159 C413.36887557 264.45046928 413.37442929 246.35892437 413.37645879 228.26737544 C413.3778307 217.10450981 413.38216337 205.9416534 413.39028677 194.77879061 C413.39557387 187.12335999 413.39717011 179.46793414 413.39587168 171.81250183 C413.39523138 167.39617556 413.39621103 162.97986539 413.40157577 158.56354198 C413.40645564 154.51675205 413.40667889 150.46998901 413.40326919 146.42319782 C413.40284801 144.96273293 413.40410493 143.50226633 413.40725348 142.04180478 C413.42288531 134.3402789 413.27138439 126.77367447 412.2823703 119.12946185 C409.04732871 119.12946185 407.6442837 121.39950905 405.3448703 123.56696185 Z M-204.2176297 344.94196185 C-204.74517853 345.43535053 -205.27272736 345.9287392 -205.81626251 346.43707904 C-210.30207353 350.66043664 -214.65002031 355.01612644 -218.9520047 359.42633685 C-221.06362009 361.49023212 -223.1845895 363.41498178 -225.42173126 365.33356342 C-229.52967233 368.91506396 -233.39041531 372.68961991 -237.2176297 376.56696185 C-237.89761017 377.25072894 -238.57759064 377.93449603 -239.27817658 378.63898334 C-241.42713896 380.8000324 -243.57280249 382.96430911 -245.7176297 385.12946185 C-248.54796807 387.98662202 -251.38175643 390.8402964 -254.2176297 393.69196185 C-254.85120392 394.33383441 -255.48477814 394.97570697 -256.13755158 395.63703021 C-259.07055349 398.58580509 -262.03198414 401.43113549 -265.20601776 404.11983356 C-270.9380383 409.11384994 -276.25485721 414.52686695 -281.62217072 419.90460834 C-282.80389 421.08497022 -283.98582139 422.26511978 -285.16794708 423.44507465 C-288.35819108 426.63078458 -291.54529358 429.81961973 -294.73168042 433.00918707 C-298.07810915 436.35816028 -301.42699156 439.70467847 -304.77547577 443.05159625 C-310.39658341 448.67088828 -316.01558782 454.29227695 -321.63340119 459.91486225 C-328.11398336 466.40088586 -334.59815993 472.88329935 -341.08421502 479.36384967 C-346.66845315 484.94353934 -352.25072706 490.52518852 -357.83138534 496.10845867 C-361.15767042 499.43629698 -364.48461365 502.76346975 -367.81333473 506.08887157 C-370.94371066 509.21634355 -374.07160103 512.34628095 -377.19764832 515.47807941 C-378.34037539 516.6221206 -379.48393913 517.76532682 -380.62843254 518.90760097 C-386.04551349 524.31515112 -391.40773522 529.72309041 -396.36231259 535.56604728 C-397.55616366 536.94320407 -398.84973546 538.23253926 -400.1551297 539.50446185 C-401.94866594 540.99401686 -401.94866594 540.99401686 -401.7176297 543.12946185 C-299.13531223 544.11880102 -196.5557583 544.27324496 -51.3006371 544.25892264 C-31.78631226 544.25445838 -12.27199349 544.25527734 7.24233124 544.25983295 C150.82635104 544.31634404 150.82635104 544.31634404 294.40874073 543.71554956 C297.57451044 543.69454666 300.7402831 543.67417175 303.9060609 543.65442762 C312.6112639 543.60010884 321.31639972 543.54092407 330.02149746 543.47166166 C332.57651532 543.45181754 335.13154481 543.43340947 337.6865842 543.41656503 C341.10905419 543.3933616 344.53141342 543.36404876 347.95381805 543.33280048 C348.94143182 543.32724144 349.92904559 543.32168239 350.94658706 543.31595489 C351.84974725 543.30634668 352.75290744 543.29673847 353.68343613 543.2868391 C354.45730864 543.2805489 355.23118115 543.2742587 356.02850434 543.26777789 C358.51555969 543.11515141 360.85205718 542.66786454 363.2823703 542.12946185 C359.25330567 537.36161602 355.12296391 532.7111231 350.85936615 528.15204486 C350.25458824 527.50513958 349.64981034 526.85823429 349.02670583 526.19172582 C342.17976304 518.90556653 335.12536175 511.83185495 328.05043671 504.76813373 C326.58333271 503.29967029 325.11644055 501.83099518 323.6497409 500.36212787 C319.71445639 496.42233633 315.77607831 492.48565165 311.83694384 488.54970989 C307.69390188 484.40922334 303.55332706 480.26627071 299.41234466 476.12372455 C292.46961005 469.17917887 285.52478801 462.23672597 278.57875702 455.29547748 C270.56285651 447.28503258 262.55058482 439.27097155 254.5401586 431.25505266 C247.6354957 424.34584617 240.72887913 417.43859717 233.82063684 410.53296956 C229.70595227 406.41983897 225.59193446 402.30604758 221.47968552 398.19048175 C217.61916537 394.32706423 213.75619042 390.46611787 209.89134094 386.60703143 C208.4779953 385.19500274 207.06549009 383.78213225 205.65391037 382.3683382 C196.50454062 373.14482965 196.50454062 373.14482965 186.8404052 364.47062549 C184.04995648 362.06859435 181.53118606 359.39552777 178.9698703 356.75446185 C169.41312085 345.82047611 169.41312085 345.82047611 157.2823703 340.12946185 C154.96006538 341.69087537 154.96006538 341.69087537 152.7198703 344.00446185 C149.21507875 347.32965208 145.68244373 350.48877367 141.9073703 353.50446185 C137.35376317 357.18582874 133.04654514 361.05720658 128.76332733 365.04303607 C124.67594315 368.82422938 120.40202857 372.32628853 116.0636203 375.81696185 C113.04217842 378.32917196 110.15795257 380.95347012 107.2823703 383.62946185 C102.69476917 387.89864337 97.94794302 391.88704702 93.0636203 395.81696185 C90.04216175 398.32918582 87.15814344 400.95365817 84.2823703 403.62946185 C79.74742441 407.84447315 75.07233039 411.81767439 70.2433078 415.69196185 C68.05846011 417.49056998 65.93184472 419.30985919 63.8214328 421.19196185 C40.77355974 441.73609518 16.3980252 454.08132246 -14.7176297 456.12946185 C-15.62770783 456.19004779 -16.53778595 456.25063373 -17.4754422 456.3130556 C-45.46147582 457.11943284 -70.33383251 446.42618191 -91.7176297 429.12946185 C-93.07281856 428.0496834 -94.42828876 426.97025795 -95.78403595 425.8911806 C-104.00021215 419.31153176 -112.022899 412.51314519 -119.98227814 405.62653217 C-121.76639649 404.08739124 -123.5573059 402.55652169 -125.3504422 401.02789935 C-130.59150628 396.5580979 -135.80981584 392.07845598 -140.9051297 387.44196185 C-144.2184605 384.43131707 -147.60704899 381.56381007 -151.0926297 378.75446185 C-155.64463277 375.07439177 -159.95015218 371.20423301 -164.23227814 367.22028217 C-168.36030424 363.402192 -172.66966481 359.8515245 -177.04966095 356.32477435 C-181.40474974 352.74123131 -185.54107428 348.91767089 -189.7176297 345.12946185 C-195.81933853 339.60702918 -198.15321272 339.14879676 -204.2176297 344.94196185 Z " fill="#fea640" transform="translate(508.7176297008991,-0.1294618546962738)"/>
<path d="M0 0 C0.66 0.33 1.32 0.66 2 1 C-2.62 5.62 -7.24 10.24 -12 15 C-12.66 14.67 -13.32 14.34 -14 14 C-9.61932717 8.89662734 -5.32423478 4.12628195 0 0 Z " fill="#fea640" transform="translate(30,19)"/>
</svg>
