<?xml version="1.0" standalone="no"?>
<!DOCTYPE svg PUBLIC "-//W3C//DTD SVG 20010904//EN" "http://www.w3.org/TR/2001/REC-SVG-20010904/DTD/svg10.dtd">
<svg xmlns="http://www.w3.org/2000/svg" version="1.0" width="1500.000000pt" height="549.000000pt" viewBox="0 0 1500.000000 549.000000" preserveAspectRatio="xMidYMid meet" fill="#fe6a40">

<g transform="translate(0.000000,549.000000) scale(0.100000,-0.100000)" fill="#fe6a40" stroke="none">
<path d="M3360 5433 c-17 -88 -16 -87 -42 -69 -58 41 -102 2 -129 -111 -25 -103 -24 -144 3 -178 18 -23 26 -26 60 -22 21 3 38 2 38 -3 0 -4 11 -10 25 -12 20 -4 26 -1 30 16 9 38 83 421 81 423 0 1 -13 4 -28 8 -25 6 -27 5 -38 -52z m-41 -112 c13 -8 12 -23 -4 -110 -19 -106 -31 -127 -65 -116 -25 8 -26 51 -5 144 21 87 37 105 74 82z"/>
<path d="M2028 5463 c-23 -6 -23 -14 7 -178 14 -75 24 -139 23 -141 -2 -1 -37 58 -78 131 -71 127 -96 155 -114 126 -3 -5 3 -75 15 -156 11 -81 19 -149 17 -150 -2 -2 -34 57 -72 131 -50 96 -74 134 -87 134 -10 0 -21 -5 -24 -10 -3 -6 41 -99 99 -208 83 -156 109 -196 123 -194 10 2 20 6 23 8 2 3 -6 77 -18 166 -13 88 -22 162 -20 163 2 2 39 -62 83 -141 69 -124 83 -143 100 -138 11 4 21 7 22 8 4 4 -70 441 -76 447 -3 3 -14 4 -23 2z"/>
<path d="M2820 5418 c-37 -20 -52 -77 -48 -185 4 -110 19 -134 85 -135 83 -1 103 35 103 184 0 76 -3 90 -22 113 -27 31 -82 41 -118 23z m78 -140 c3 -109 -7 -141 -41 -136 -21 3 -22 9 -25 100 -3 109 7 141 41 136 21 -3 22 -9 25 -100z"/>
<path d="M2393 5398 c-34 -17 -46 -59 -38 -135 14 -144 37 -183 105 -183 61 0 90 33 90 101 0 89 -20 180 -46 206 -25 25 -72 30 -111 11z m68 -44 c18 -22 41 -192 28 -216 -11 -21 -32 -23 -47 -5 -26 31 -42 221 -19 230 20 9 24 8 38 -9z"/>
<path d="M3996 5200 c-24 -21 -57 -73 -97 -154 -53 -104 -60 -126 -56 -161 7 -46 39 -79 93 -94 54 -15 100 11 133 76 16 31 14 38 -13 51 -21 9 -26 8 -31 -8 -11 -34 -46 -70 -69 -70 -27 0 -56 29 -56 55 0 28 123 256 146 272 16 10 28 11 48 3 34 -13 42 -35 27 -74 -23 -57 -23 -62 2 -73 24 -11 26 -9 47 38 14 34 19 60 15 80 -8 38 -63 79 -113 86 -33 4 -44 1 -76 -27z"/>
<path d="M1020 4955 c-11 -13 8 -43 119 -190 73 -96 138 -175 145 -175 8 0 19 7 26 15 10 12 -1 32 -64 117 -42 56 -76 107 -76 114 0 17 28 37 44 31 8 -3 49 -51 91 -106 l76 -101 25 16 c15 11 21 21 16 28 -5 6 -44 57 -86 114 -91 120 -114 136 -151 102 -14 -13 -25 -29 -25 -36 0 -32 -22 -20 -61 31 -43 58 -58 65 -79 40z"/>
<path d="M4312 4814 c-61 -64 -102 -132 -102 -169 0 -44 44 -85 92 -85 31 0 43 8 87 56 104 114 120 168 64 220 -43 40 -88 33 -141 -22z m115 -20 c8 -22 -8 -52 -67 -123 -39 -46 -57 -61 -73 -59 -40 6 -30 40 33 121 61 77 93 96 107 61z"/>
<path d="M767 4682 c-16 -17 -15 -20 13 -47 21 -20 28 -34 24 -51 -6 -25 12 -42 28 -26 8 8 37 -13 100 -73 95 -90 121 -101 166 -69 25 17 28 34 10 52 -9 9 -16 8 -30 -5 -17 -15 -23 -11 -103 67 -80 79 -84 85 -69 102 14 14 14 20 4 33 -12 14 -15 14 -32 -1 -17 -17 -20 -16 -46 9 -33 32 -43 33 -65 9z"/>
<path d="M4751 4614 c-26 -21 -34 -24 -46 -14 -22 19 -51 -6 -33 -28 11 -13 -3 -30 -90 -112 -99 -92 -102 -97 -84 -113 10 -9 23 -17 28 -17 5 0 32 23 59 51 28 28 72 69 98 91 45 38 49 39 66 24 16 -15 19 -15 31 -1 10 13 10 19 -4 34 -15 16 -15 19 2 34 21 19 43 22 58 7 8 -8 15 -6 24 5 11 13 9 19 -10 40 -30 32 -61 32 -99 -1z"/>
<path d="M634 4385 c-3 -14 -4 -34 -1 -45 4 -16 2 -17 -14 -7 -15 9 -21 8 -33 -8 -9 -11 -14 -23 -13 -27 1 -4 58 -48 126 -98 118 -87 124 -90 142 -74 10 9 19 20 19 24 0 3 -43 37 -95 75 -80 57 -95 73 -95 95 0 15 7 33 16 41 14 11 13 15 -8 31 -31 23 -36 23 -44 -7z"/>
<path d="M4976 4349 c-36 -19 -40 -19 -48 -4 -13 23 -41 -1 -34 -29 4 -17 -14 -35 -105 -99 -60 -43 -109 -82 -109 -86 0 -4 8 -15 18 -24 17 -15 25 -11 127 63 101 72 111 78 127 63 9 -8 24 -13 33 -10 17 7 20 23 5 32 -18 11 -10 32 17 44 23 11 29 10 40 -5 10 -14 15 -15 28 -4 20 17 19 23 -10 54 -29 31 -39 32 -89 5z"/>
<path d="M412 4043 c-7 -3 -22 -22 -32 -44 -35 -68 -11 -104 110 -164 101 -51 142 -51 174 -3 46 71 17 119 -108 179 -74 36 -113 45 -144 32z m128 -89 c88 -45 104 -61 94 -89 -10 -25 -44 -17 -128 28 -88 47 -107 67 -87 91 8 9 18 16 23 16 5 0 50 -21 98 -46z"/>
<path d="M2494 3667 l-271 -372 112 -5 112 -5 -244 -368 c-134 -203 -243 -370 -243 -373 0 -2 50 -4 110 -4 61 0 110 -3 109 -7 0 -5 -87 -172 -193 -373 l-192 -365 421 -5 420 -5 3 -167 2 -168 125 0 125 0 0 170 0 170 415 0 c228 0 415 2 415 5 0 3 -83 163 -184 357 -102 194 -188 361 -191 370 -6 16 4 18 104 20 l110 3 -244 370 -244 370 109 3 c61 1 110 5 110 8 0 4 -506 722 -519 736 -3 3 -128 -161 -277 -365z"/>
<path d="M4980 3970 c-120 -63 -143 -103 -97 -171 18 -27 30 -35 59 -37 21 -2 46 2 57 8 18 9 19 14 9 36 -8 17 -16 23 -27 18 -9 -4 -27 -7 -41 -8 -40 -2 -34 42 9 71 19 13 40 23 47 23 8 0 25 -22 39 -50 14 -27 30 -50 36 -50 12 0 57 28 87 54 36 31 24 106 -22 138 -26 18 -84 6 -156 -32z m148 -36 c2 -15 -7 -29 -26 -43 -17 -12 -32 -21 -35 -21 -6 0 -31 60 -26 64 37 31 83 31 87 0z"/>
<path d="M100 3702 c0 -6 -3 -17 -6 -26 -4 -12 22 -24 131 -57 75 -24 130 -46 123 -50 -7 -3 -77 -12 -155 -19 -126 -11 -143 -15 -149 -32 -3 -11 -4 -21 -2 -22 5 -5 391 -124 412 -128 12 -2 21 5 27 19 8 22 2 25 -139 70 l-147 47 163 16 c154 15 181 22 182 50 0 3 -93 34 -208 69 -114 35 -213 66 -219 69 -7 2 -13 0 -13 -6z"/>
<path d="M5138 3591 c-113 -41 -136 -67 -117 -135 12 -42 42 -66 84 -66 41 0 55 11 48 38 -5 20 -11 23 -41 20 -24 -2 -38 2 -45 14 -15 23 4 43 58 61 l44 15 17 -51 c9 -29 20 -56 25 -61 4 -5 32 3 66 20 61 31 73 53 59 110 -18 69 -75 79 -198 35z m152 -36 c18 -21 5 -44 -32 -60 -35 -14 -39 -12 -52 32 -5 17 -1 23 21 31 39 15 49 14 63 -3z"/>
<path d="M11788 3519 c-101 -11 -166 -69 -193 -174 -22 -85 -22 -555 0 -640 22 -83 57 -129 121 -161 49 -24 63 -26 143 -22 76 3 95 8 131 32 63 42 93 114 98 239 l4 97 -66 0 -66 0 0 -85 c0 -139 -27 -177 -122 -177 -57 1 -83 18 -104 69 -21 49 -20 609 1 659 33 80 178 86 211 8 8 -20 14 -68 14 -119 l0 -85 65 0 65 0 0 78 c0 214 -97 304 -302 281z"/>
<path d="M14540 3511 c0 -15 8 -20 33 -23 l32 -3 3 -87 c3 -80 5 -88 22 -88 18 0 20 7 20 90 l0 90 36 0 c28 0 35 3 32 18 -3 14 -17 17 -91 20 -81 3 -87 1 -87 -17z"/>
<path d="M14750 3421 c0 -104 1 -111 20 -111 18 0 20 7 20 67 0 75 7 74 40 -9 30 -78 48 -76 82 10 l27 67 0 -67 c1 -66 2 -68 26 -68 l26 0 -3 108 -3 107 -26 3 c-22 3 -29 -3 -42 -35 -8 -21 -23 -56 -32 -77 l-17 -40 -32 75 c-27 63 -36 74 -59 77 l-27 3 0 -110z"/>
<path d="M6100 3026 l0 -496 60 0 60 0 2 329 3 329 139 -329 139 -329 43 0 44 0 0 495 0 495 -55 0 -55 0 0 -327 c0 -179 -3 -324 -6 -321 -3 4 -67 150 -142 325 l-137 318 -47 3 -48 3 0 -495z"/>
<path d="M8030 3025 l0 -495 65 0 65 0 0 285 0 285 33 20 c17 11 43 20 57 20 56 0 55 5 58 -315 l3 -295 64 0 65 0 0 304 c0 315 -3 341 -42 384 -38 40 -136 25 -215 -34 l-23 -16 0 176 0 176 -65 0 -65 0 0 -495z"/>
<path d="M8831 3498 c0 -13 35 -234 77 -493 l77 -470 52 -3 c42 -2 52 0 57 15 3 10 33 167 67 348 34 182 65 333 68 338 4 4 36 -147 71 -335 35 -189 65 -349 68 -355 2 -8 23 -13 52 -13 l48 0 11 63 c6 34 40 247 76 472 36 226 67 420 70 433 5 22 4 23 -52 20 l-57 -3 -51 -350 c-28 -192 -54 -341 -58 -330 -6 19 -127 656 -127 669 0 3 -22 6 -50 6 -43 0 -50 -3 -55 -22 -2 -13 -32 -167 -65 -342 -33 -175 -61 -320 -63 -322 -2 -2 -25 141 -51 319 -27 177 -50 334 -53 350 -5 25 -9 27 -59 27 -50 0 -54 -2 -53 -22z"/>
<path d="M11040 3355 l0 -164 -36 24 c-46 31 -115 34 -161 5 -66 -40 -93 -140 -93 -345 0 -257 40 -343 162 -353 45 -3 59 0 91 22 35 24 37 24 37 6 0 -18 7 -20 65 -20 l65 0 0 495 0 495 -65 0 -65 0 0 -165z m-25 -227 l25 -11 0 -238 0 -237 -35 -12 c-48 -16 -74 -10 -99 23 -20 27 -21 41 -21 215 0 194 4 230 31 256 18 19 63 21 99 4z"/>
<path d="M12851 3468 c-47 -25 -65 -63 -71 -151 l-5 -82 -42 -3 -43 -3 0 -44 0 -44 43 -3 42 -3 3 -302 2 -303 65 0 65 0 0 305 0 305 90 0 90 0 0 -305 0 -305 65 0 65 0 2 303 3 302 53 3 52 3 0 44 0 44 -52 3 -53 3 3 59 c3 73 13 86 64 86 l39 0 -3 48 -3 47 -77 0 c-67 0 -80 -3 -102 -24 -31 -29 -42 -64 -51 -153 l-7 -68 -89 0 -89 0 0 63 c0 73 10 87 63 87 l38 0 -3 48 -3 47 -65 3 c-38 1 -75 -3 -89 -10z"/>
<path d="M7680 3335 l0 -105 -35 0 c-34 0 -35 -1 -35 -40 0 -39 1 -40 35 -40 l35 0 0 -241 c0 -266 7 -313 52 -356 27 -26 35 -28 111 -28 l82 0 3 47 3 47 -48 3 c-71 5 -73 10 -73 291 l0 237 60 0 60 0 0 40 0 39 -57 3 -58 3 -3 103 -3 102 -64 0 -65 0 0 -105z"/>
<path d="M6835 3226 c-41 -18 -82 -68 -97 -119 -17 -58 -17 -397 0 -455 17 -55 63 -108 109 -123 59 -19 166 -7 206 24 64 49 72 79 75 297 3 124 0 214 -8 248 -13 60 -50 109 -97 128 -41 18 -148 17 -188 0z m140 -101 l25 -24 0 -221 0 -221 -25 -24 c-46 -47 -101 -20 -116 55 -11 58 -11 322 0 380 15 75 70 102 116 55z"/>
<path d="M7475 3221 c-17 -10 -43 -33 -58 -50 l-27 -33 0 46 0 46 -65 0 -65 0 0 -350 0 -350 65 0 65 0 0 261 0 261 31 30 c28 29 33 30 90 25 l59 -5 0 69 0 69 -32 0 c-18 0 -47 -8 -63 -19z"/>
<path d="M9825 3226 c-40 -17 -81 -67 -95 -114 -17 -56 -24 -315 -11 -400 14 -90 30 -123 78 -159 33 -26 44 -28 123 -28 79 0 90 2 122 27 66 50 73 77 76 311 3 170 0 217 -13 256 -17 52 -54 94 -98 110 -39 15 -146 13 -182 -3z m139 -99 c21 -21 24 -37 31 -135 4 -62 4 -162 0 -224 -7 -98 -10 -114 -31 -135 -47 -47 -102 -17 -115 63 -10 65 -10 317 0 374 15 74 70 102 115 57z"/>
<path d="M10345 3226 c-41 -18 -82 -67 -97 -119 -18 -57 -17 -396 0 -455 17 -55 63 -108 109 -123 59 -19 166 -7 206 24 64 49 72 79 75 297 3 124 0 214 -8 248 -13 60 -50 109 -97 128 -41 18 -148 17 -188 0z m140 -101 l25 -24 0 -221 0 -221 -25 -24 c-29 -30 -55 -32 -85 -7 -30 25 -39 81 -39 252 0 171 9 227 39 252 30 25 56 23 85 -7z"/>
<path d="M12315 3226 c-17 -7 -43 -27 -57 -44 -47 -56 -53 -91 -53 -302 0 -211 6 -246 53 -302 35 -41 79 -58 150 -58 80 0 139 31 172 90 25 44 25 49 25 270 0 214 -1 227 -22 267 -36 66 -75 88 -163 91 -48 1 -86 -3 -105 -12z m140 -101 l25 -24 0 -219 c0 -195 -2 -222 -17 -240 -29 -34 -66 -37 -99 -9 l-29 25 0 222 0 222 28 24 c36 31 62 30 92 -1z"/>
<path d="M13494 3221 c-81 -37 -104 -114 -104 -344 0 -226 23 -297 107 -338 37 -18 57 -21 118 -17 116 8 166 59 181 191 l7 57 -65 0 -66 0 -4 -61 c-4 -49 -9 -66 -27 -80 -31 -25 -54 -24 -88 5 -27 23 -28 28 -31 135 l-4 111 143 0 142 0 -6 103 c-10 157 -34 214 -103 243 -48 20 -151 17 -200 -5z m147 -90 c21 -17 24 -30 27 -100 l4 -81 -76 0 -76 0 0 53 c0 73 17 126 43 137 34 14 53 12 78 -9z"/>
<path d="M14020 3229 c-44 -18 -80 -62 -97 -119 -24 -78 -24 -381 0 -460 27 -93 84 -130 195 -130 121 0 192 76 192 208 l0 42 -59 0 -59 0 -7 -59 c-9 -77 -22 -95 -70 -95 -53 0 -72 27 -80 117 -4 39 -5 88 -3 107 l3 35 139 3 138 3 -4 112 c-7 190 -53 248 -195 246 -37 0 -79 -5 -93 -10z m144 -99 c11 -11 25 -88 25 -142 l1 -38 -81 0 -82 0 7 38 c3 20 6 54 6 75 0 53 39 92 83 83 17 -4 36 -11 41 -16z"/>
<path d="M155 2876 c-126 -56 -141 -228 -28 -306 29 -20 49 -25 98 -25 52 0 67 4 99 29 106 80 93 234 -24 294 -50 25 -100 28 -145 8z"/>
<path d="M5235 2876 c-37 -17 -80 -62 -94 -99 -61 -160 130 -305 266 -201 39 30 73 94 73 139 0 36 -30 104 -56 127 -50 44 -132 59 -189 34z"/>
<path d="M7630 2120 c0 -93 4 -150 10 -150 6 0 10 57 10 150 0 93 -4 150 -10 150 -6 0 -10 -57 -10 -150z"/>
<path d="M7740 2255 c0 -8 7 -15 15 -15 8 0 15 7 15 15 0 8 -7 15 -15 15 -8 0 -15 -7 -15 -15z"/>
<path d="M8932 2258 c-7 -7 -12 -27 -12 -45 0 -23 -5 -33 -15 -33 -8 0 -15 -4 -15 -10 0 -5 7 -10 15 -10 12 0 15 -17 15 -95 0 -57 4 -95 10 -95 6 0 10 38 10 95 l0 95 30 0 c17 0 30 5 30 10 0 6 -13 10 -30 10 -27 0 -30 3 -30 34 0 36 18 51 51 41 11 -4 19 -2 19 4 0 15 -63 14 -78 -1z"/>
<path d="M9080 2255 c-7 -9 -10 -27 -6 -45 5 -25 2 -30 -14 -30 -11 0 -20 -4 -20 -10 0 -5 9 -10 20 -10 19 0 20 -7 20 -95 0 -57 4 -95 10 -95 6 0 10 38 10 95 0 95 0 95 25 95 14 0 25 5 25 10 0 6 -11 10 -25 10 -18 0 -26 7 -31 25 -8 34 12 58 43 50 13 -3 23 -1 23 5 0 16 -66 12 -80 -5z"/>
<path d="M10270 2120 c0 -93 4 -150 10 -150 6 0 10 57 10 150 0 93 -4 150 -10 150 -6 0 -10 -57 -10 -150z"/>
<path d="M10790 2255 c0 -8 7 -15 15 -15 8 0 15 7 15 15 0 8 -7 15 -15 15 -8 0 -15 -7 -15 -15z"/>
<path d="M6155 2150 c33 -67 45 -101 45 -135 0 -25 5 -45 10 -45 6 0 10 25 10 56 0 47 7 69 40 129 43 78 46 85 30 85 -6 0 -27 -34 -47 -76 l-36 -77 -39 77 c-21 42 -43 76 -48 76 -6 0 10 -40 35 -90z"/>
<path d="M7119 2221 c-19 -16 -24 -30 -27 -90 -7 -121 16 -161 92 -161 24 0 52 3 61 6 29 12 45 60 45 137 0 101 -19 127 -95 127 -37 0 -60 -6 -76 -19z m130 -17 c20 -18 26 -151 9 -184 -11 -21 -22 -25 -66 -28 -52 -3 -53 -2 -67 32 -18 43 -19 132 -2 166 20 39 91 47 126 14z"/>
<path d="M8469 2214 c-21 -23 -24 -34 -24 -111 0 -80 1 -86 28 -109 20 -17 40 -24 72 -24 24 0 47 5 50 10 4 6 -13 10 -43 10 -70 0 -82 17 -82 116 0 103 10 118 79 116 28 0 51 3 51 9 0 5 -24 9 -53 9 -45 0 -58 -4 -78 -26z"/>
<path d="M9806 2227 c-21 -16 -26 -78 -7 -100 6 -8 35 -21 62 -27 55 -13 71 -35 59 -80 -6 -24 -10 -25 -75 -24 -60 1 -66 -1 -49 -13 12 -9 38 -13 68 -11 63 4 92 37 82 92 -6 31 -12 37 -49 47 -81 22 -87 26 -87 64 0 29 5 37 26 45 17 7 38 7 60 1 27 -7 34 -7 34 5 0 18 -99 19 -124 1z"/>
<path d="M10638 2224 c-5 -4 -8 -15 -8 -25 0 -9 -6 -20 -12 -23 -10 -5 -10 -7 0 -12 8 -4 12 -32 12 -88 0 -50 5 -87 12 -94 14 -14 47 -16 75 -5 13 6 8 9 -22 13 l-40 5 -3 83 -3 82 31 0 c16 0 30 5 30 10 0 6 -13 10 -29 10 -24 0 -30 5 -33 26 -2 14 -6 22 -10 18z"/>
<path d="M6376 2161 c-33 -36 -33 -143 0 -176 23 -23 99 -20 124 5 16 16 20 33 20 85 0 52 -4 69 -20 85 -27 27 -100 28 -124 1z m114 -20 c5 -11 10 -41 10 -66 0 -69 -12 -85 -66 -85 -53 0 -59 9 -59 93 1 66 10 77 67 77 27 0 40 -5 48 -19z"/>
<path d="M6600 2103 c0 -43 3 -88 6 -101 8 -29 47 -38 93 -22 26 9 36 10 39 1 2 -6 8 -11 13 -11 5 0 9 47 9 105 0 63 -4 105 -10 105 -6 0 -10 -35 -10 -85 0 -83 -1 -86 -26 -95 -40 -16 -72 -12 -84 9 -5 11 -10 54 -10 95 0 44 -4 76 -10 76 -6 0 -10 -32 -10 -77z"/>
<path d="M6850 2075 c0 -128 18 -142 22 -17 l3 87 33 10 c17 5 32 13 32 17 0 14 -33 9 -52 -9 -17 -15 -18 -15 -18 0 0 10 -4 17 -10 17 -6 0 -10 -42 -10 -105z"/>
<path d="M7370 2075 c0 -63 4 -105 10 -105 6 0 10 35 10 85 0 83 1 86 26 95 39 15 81 12 88 -6 3 -9 6 -51 6 -95 0 -46 4 -79 10 -79 15 0 13 183 -2 198 -15 15 -58 15 -95 1 -19 -7 -29 -7 -31 0 -2 6 -8 11 -13 11 -5 0 -9 -47 -9 -105z"/>
<path d="M7750 2075 c0 -63 4 -105 10 -105 6 0 10 42 10 105 0 63 -4 105 -10 105 -6 0 -10 -42 -10 -105z"/>
<path d="M7870 2078 c0 -66 4 -108 10 -108 6 0 10 35 10 85 0 95 10 109 73 103 l32 -3 3 -92 c1 -51 7 -93 12 -93 15 0 13 183 -2 198 -15 15 -60 15 -93 0 -22 -10 -28 -9 -36 3 -5 9 -9 -25 -9 -93z"/>
<path d="M8130 2160 c-16 -16 -20 -33 -20 -89 0 -61 3 -72 22 -85 25 -18 105 -21 128 -6 17 11 12 12 -53 10 -57 -2 -77 12 -77 51 l0 29 70 0 70 0 0 38 c0 50 -24 72 -78 72 -29 0 -48 -6 -62 -20z m108 -12 c7 -7 12 -25 12 -40 0 -28 -1 -28 -60 -28 -59 0 -60 0 -60 28 0 37 17 52 60 52 20 0 41 -5 48 -12z"/>
<path d="M8680 2160 c-16 -16 -20 -33 -20 -85 0 -82 19 -105 83 -105 65 0 82 24 82 112 0 57 -3 72 -19 84 -30 21 -102 18 -126 -6z m115 -11 c12 -19 9 -128 -5 -144 -7 -9 -28 -15 -51 -15 -46 0 -59 18 -59 85 0 69 12 85 65 85 24 0 47 -5 50 -11z"/>
<path d="M9239 2161 c-21 -17 -24 -28 -24 -84 0 -83 18 -107 81 -107 23 0 49 3 58 6 31 12 15 19 -37 16 -58 -4 -71 4 -82 51 l-7 27 76 0 76 0 0 35 c0 48 -29 75 -79 75 -23 0 -48 -8 -62 -19z m111 -20 c5 -11 10 -29 10 -41 0 -19 -5 -21 -62 -18 -60 3 -63 4 -60 27 4 37 21 51 63 51 28 0 41 -5 49 -19z"/>
<path d="M9481 2154 c-29 -37 -30 -135 -1 -164 20 -20 88 -28 124 -14 32 12 15 19 -41 15 -62 -3 -83 11 -83 56 0 22 4 23 69 23 77 0 86 8 71 61 -12 41 -24 49 -77 49 -33 0 -46 -5 -62 -26z m117 -36 l3 -38 -60 0 c-55 0 -61 2 -61 21 0 45 18 60 68 57 46 -3 47 -3 50 -40z"/>
<path d="M10036 2164 c-22 -22 -29 -57 -24 -116 6 -61 24 -78 83 -78 65 0 79 16 83 98 4 61 1 73 -17 91 -26 26 -101 29 -125 5z m114 -23 c5 -11 10 -41 10 -66 0 -69 -12 -85 -66 -85 -39 0 -46 3 -54 26 -6 14 -10 40 -10 59 0 19 4 45 10 59 8 23 15 26 54 26 35 0 48 -5 56 -19z"/>
<path d="M10390 2087 c0 -59 4 -97 12 -105 16 -16 57 -15 91 2 23 13 27 13 27 0 0 -8 5 -14 10 -14 6 0 10 42 10 105 0 63 -4 105 -10 105 -6 0 -10 -35 -10 -85 0 -95 -10 -109 -73 -103 l-32 3 -3 93 c-4 121 -22 120 -22 -1z"/>
<path d="M10790 2075 c0 -63 4 -105 10 -105 6 0 10 42 10 105 0 63 -4 105 -10 105 -6 0 -10 -42 -10 -105z"/>
<path d="M10924 2159 c-14 -16 -19 -36 -19 -84 0 -81 19 -105 82 -105 65 0 83 23 83 109 0 61 -3 72 -22 85 -33 24 -101 21 -124 -5z m114 -11 c15 -15 16 -112 2 -139 -13 -24 -81 -27 -100 -4 -7 9 -13 40 -13 70 0 30 6 61 13 70 15 18 81 20 98 3z"/>
<path d="M11160 2078 c0 -66 4 -108 10 -108 6 0 10 35 10 85 0 95 10 109 73 103 l32 -3 3 -92 c1 -51 7 -93 12 -93 15 0 13 183 -2 198 -15 15 -60 15 -93 0 -22 -10 -28 -9 -36 3 -5 9 -9 -25 -9 -93z"/>
<path d="M380 2039 c-185 -58 -215 -70 -212 -86 2 -10 7 -21 10 -25 4 -3 70 13 147 38 76 24 140 42 141 41 2 -1 -53 -49 -122 -107 -119 -100 -139 -125 -111 -135 6 -3 106 24 220 60 115 36 210 65 212 65 6 0 -7 40 -15 45 -4 2 -64 -14 -134 -36 -71 -22 -130 -38 -133 -36 -2 3 48 49 111 103 64 54 116 103 116 108 -1 34 -21 31 -230 -35z"/>
<path d="M5053 2025 c-12 -8 -27 -31 -33 -50 -22 -68 8 -103 122 -141 104 -34 145 -34 175 1 24 28 31 82 13 114 -9 17 -67 48 -74 40 -2 -2 -7 -14 -10 -26 -6 -18 -1 -25 23 -38 34 -17 39 -36 16 -55 -12 -10 -24 -10 -60 0 -25 7 -48 16 -50 20 -3 4 4 33 15 64 14 42 16 58 7 61 -32 11 -94 25 -107 25 -9 0 -25 -7 -37 -15z m103 -58 c5 -4 -16 -67 -22 -67 -3 0 -20 7 -39 14 -34 14 -46 42 -27 60 7 8 79 2 88 -7z"/>
<path d="M4886 1639 c-35 -42 -35 -92 1 -125 32 -30 178 -104 205 -104 30 0 56 18 73 50 25 48 19 85 -17 115 l-32 27 -19 -23 c-18 -22 -18 -23 9 -44 30 -24 30 -58 0 -63 -21 -4 -96 27 -96 40 0 5 11 31 25 58 14 27 25 52 25 55 0 11 -92 45 -120 45 -19 0 -36 -10 -54 -31z m88 -34 c36 -15 36 -15 21 -45 -18 -35 -18 -35 -56 -13 -27 16 -39 50 -22 66 9 10 16 9 57 -8z"/>
<path d="M520 1609 c-126 -57 -172 -107 -150 -165 30 -79 82 -85 201 -23 119 62 142 102 96 170 -19 28 -30 34 -62 37 -24 1 -58 -6 -85 -19z m113 -51 c15 -24 2 -36 -97 -88 -69 -36 -89 -43 -103 -34 -39 24 -21 47 72 96 95 50 111 53 128 26z"/>
<path d="M4627 1422 c-27 -30 -21 -69 15 -102 25 -23 29 -32 20 -43 -19 -22 10 -42 36 -26 16 10 33 1 130 -69 l112 -81 17 25 c10 16 13 28 7 32 -82 56 -214 156 -214 161 0 4 5 12 12 19 10 10 9 16 -4 29 -16 15 -18 15 -35 -6 l-18 -22 -24 25 c-20 21 -22 28 -12 40 27 32 -14 49 -42 18z"/>
<path d="M699 1229 c-68 -51 -126 -93 -128 -95 -2 -2 4 -15 13 -29 l16 -25 94 70 c101 74 134 85 158 49 12 -19 16 -20 36 -8 31 20 27 36 -13 50 -25 10 -32 16 -24 25 10 12 -7 54 -22 54 -3 0 -61 -41 -130 -91z"/>
<path d="M4446 1190 c-33 -40 -33 -52 4 -94 18 -20 26 -37 20 -41 -15 -10 -12 -32 6 -39 9 -4 22 -2 28 3 9 7 42 -17 114 -85 l102 -96 19 24 19 23 -101 96 c-101 95 -102 97 -84 117 18 20 18 21 -1 31 -15 8 -23 7 -32 -4 -17 -21 -27 -19 -46 10 -13 21 -14 28 -4 41 11 12 11 18 -2 30 -13 14 -18 12 -42 -16z"/>
<path d="M1083 1088 c-25 -25 -35 -29 -46 -20 -19 16 -42 -5 -25 -25 9 -11 -8 -33 -80 -107 -100 -102 -108 -121 -66 -163 23 -23 27 -24 41 -11 12 13 13 19 2 37 -13 19 -8 27 66 101 44 44 85 80 91 80 6 0 17 -7 24 -15 10 -12 16 -13 27 -4 11 10 11 14 -2 29 -21 23 -19 32 15 65 28 27 29 30 13 47 -21 24 -23 23 -60 -14z"/>
<path d="M1223 775 c-73 -96 -133 -178 -133 -183 0 -5 8 -16 18 -26 18 -16 23 -11 98 88 81 108 106 125 134 91 10 -12 -2 -34 -71 -126 -78 -105 -82 -112 -64 -125 10 -8 22 -14 27 -14 4 0 46 51 94 114 103 138 107 162 33 186 l-46 16 43 54 c24 30 43 59 44 64 0 8 -30 35 -40 36 -3 0 -65 -79 -137 -175z"/>
<path d="M4261 863 c-21 -10 -39 -30 -48 -51 -13 -31 -12 -38 6 -75 11 -23 47 -71 79 -106 48 -54 63 -64 90 -64 40 0 84 30 97 67 13 37 -20 97 -94 176 -65 68 -83 76 -130 53z m102 -108 c70 -86 81 -110 61 -129 -23 -23 -45 -7 -109 78 -53 70 -63 94 -48 110 17 17 51 -3 96 -59z"/>
<path d="M3840 739 c-79 -47 -80 -90 -7 -236 60 -122 105 -179 147 -188 42 -9 114 25 134 64 20 38 20 39 -5 106 l-20 55 -30 -15 -29 -16 20 -39 c11 -22 20 -46 20 -54 0 -24 -29 -46 -60 -46 -24 0 -34 9 -63 58 -57 95 -107 200 -107 227 0 29 40 60 68 51 10 -4 28 -24 41 -46 20 -36 24 -38 46 -28 30 14 31 21 4 64 -41 67 -95 81 -159 43z"/>
<path d="M1886 603 c-14 -67 -66 -393 -66 -411 0 -11 9 -22 20 -25 17 -4 32 16 101 139 45 80 83 143 85 142 1 -2 -8 -75 -20 -163 -24 -160 -23 -174 11 -175 6 0 59 91 118 202 105 200 111 217 68 218 -7 0 -44 -63 -83 -140 -39 -77 -71 -140 -73 -140 -2 0 7 71 19 158 22 156 21 171 -11 172 -6 0 -45 -63 -89 -140 -43 -77 -79 -140 -81 -140 -2 0 -1 8 1 18 2 9 15 80 29 156 20 110 22 141 13 148 -23 14 -36 8 -42 -19z"/>
<path d="M3260 508 c1 -7 7 -41 14 -74 l13 -62 -37 5 c-31 4 -40 1 -58 -22 -26 -33 -27 -68 -7 -165 17 -81 37 -125 60 -134 27 -10 63 -7 77 8 8 8 26 11 46 8 26 -3 32 -1 32 14 0 11 -18 111 -40 222 -22 112 -40 206 -40 208 0 2 -13 4 -30 4 -18 0 -30 -5 -30 -12z m26 -176 c17 -11 53 -209 40 -222 -14 -14 -41 -13 -54 3 -14 17 -42 131 -42 173 0 43 27 66 56 46z"/>
<path d="M2401 331 c-25 -25 -39 -76 -47 -178 -7 -79 -6 -82 20 -108 22 -22 33 -26 73 -23 35 2 50 9 64 28 22 30 39 112 40 195 1 52 -2 62 -25 82 -35 30 -98 31 -125 4z m88 -35 c9 -11 9 -35 0 -103 -6 -48 -15 -98 -20 -110 -10 -27 -47 -31 -56 -6 -9 23 15 203 28 220 15 17 34 17 48 -1z"/>
<path d="M2839 332 c-46 -6 -63 -36 -67 -118 -8 -154 19 -214 96 -214 24 0 49 8 63 19 22 17 24 29 28 111 3 99 -3 147 -22 173 -14 20 -61 34 -98 29z m49 -54 c18 -18 16 -212 -2 -227 -18 -15 -43 -5 -50 22 -8 29 -8 181 0 201 7 19 35 21 52 4z"/>
</g>
</svg>
