<?xml version="1.0" encoding="UTF-8"?>
<svg version="1.1" xmlns="http://www.w3.org/2000/svg" width="400" height="400">
<path d="M0 0 C132 0 264 0 400 0 C400 132 400 264 400 400 C268 400 136 400 0 400 C0 268 0 136 0 0 Z " fill="#FDFDFD" transform="translate(0,0)"/>
<path d="M0 0 C8.79825777 7.14259806 15.02601541 16.62955951 16.22143555 28.13037109 C16.76024919 38.72972008 16.01685356 48.06694997 12 58 C11.54496094 59.14210938 11.08992188 60.28421875 10.62109375 61.4609375 C9.44962433 64.32452941 8.24513401 67.16783042 7 70 C8.65 70.33 10.3 70.66 12 71 C12.31066406 70.15953125 12.62132812 69.3190625 12.94140625 68.453125 C13.62074219 67.64359375 14.30007812 66.8340625 15 66 C18.83984375 66.109375 18.83984375 66.109375 21.25537109 66.42651367 C38.89083739 68.55349281 53.58587725 58.9612467 68.7109375 51.17626953 C74.67412309 48.12356748 80.76370965 45.36791185 86.875 42.625 C88.72727679 41.78542828 90.57890285 40.94441846 92.4296875 40.1015625 C93.23535156 39.73925537 94.04101562 39.37694824 94.87109375 39.00366211 C97.19275749 37.94572953 97.19275749 37.94572953 100.0546875 36.23046875 C104.17794996 34.50788563 107.82628008 34.5964666 112.25 34.6875 C113.5949353 34.70115601 113.5949353 34.70115601 114.96704102 34.71508789 C127.50601638 34.93626965 140.51291121 35.3560743 152.88549805 37.5 C156.38348981 38.06156519 159.83125672 38.31598699 163.3671875 38.53515625 C164.04677521 38.57813339 164.72636292 38.62111053 165.42654419 38.66539001 C167.57586033 38.80065225 169.7254115 38.93164501 171.875 39.0625 C173.34116353 39.15401374 174.8073096 39.24580785 176.2734375 39.33789062 C179.8487621 39.56183545 183.4243102 39.78195465 187 40 C188.70738707 45.59696295 189.88611571 51.20254942 190.953125 56.953125 C191.1334729 57.91198105 191.3138208 58.8708371 191.49963379 59.85874939 C192.08682501 62.98848049 192.66866681 66.11917591 193.25 69.25 C193.45274536 70.33552155 193.65549072 71.42104309 193.86437988 72.53945923 C196.26715978 85.40533712 198.59789536 98.27735537 200.75 111.1875 C204.19142698 131.82185177 208.17046555 152.36095212 212.07410431 172.91176033 C212.63932481 175.88776797 213.20376723 178.86392306 213.76828003 181.840065 C214.15923454 183.89829641 214.55182522 185.95621062 214.94458008 188.01409912 C216.05835363 193.87872573 217.15402777 199.74593921 218.17675781 205.62719727 C218.4169162 207.00730736 218.4169162 207.00730736 218.66192627 208.41529846 C218.99688559 210.97618915 219.06132346 213.42061391 219 216 C211.36867812 216.11303888 203.85763724 215.79029929 196.25390625 215.16015625 C195.16270981 215.07374374 194.07151337 214.98733124 192.94725037 214.89830017 C189.48532674 214.62377613 186.0238902 214.34366379 182.5625 214.0625 C175.8032133 213.51629017 169.0440951 212.97831925 162.28051758 212.48779297 C158.33688829 212.1990803 154.41832572 211.83337218 150.4909668 211.37548828 C137.84036438 210.05042459 129.71609819 212.68019835 118.6875 218.75 C117.17375503 219.53995533 115.65759907 220.32530648 114.13916016 221.10620117 C111.13639678 222.65561313 108.14539697 224.2245251 105.16259766 225.81201172 C99.48237592 228.82022325 93.68949167 231.57363873 87.875 234.3125 C86.98901123 234.73692383 86.10302246 235.16134766 85.19018555 235.59863281 C83.56046378 236.37902278 81.92661464 237.15087249 80.28808594 237.91259766 C78.77823457 238.63014759 77.28537812 239.38475957 75.81347656 240.17724609 C65.94979169 245.22393663 54.44926311 242.923268 43.78125 241.90625 C42.56151489 241.79526978 41.34177979 241.68428955 40.08508301 241.56994629 C34.92234654 241.10003602 29.76080206 240.61757386 24.59912109 240.13623047 C20.80605258 239.7843555 17.01243303 239.43892642 13.21875 239.09375 C12.07152466 238.9843811 10.92429932 238.87501221 9.74230957 238.7623291 C-5.43978096 236.97135436 -5.43978096 236.97135436 -19.5625 241.4375 C-20.92698231 242.17837125 -22.29293495 242.91653936 -23.66015625 243.65234375 C-24.36414551 244.03890137 -25.06813477 244.42545898 -25.79345703 244.82373047 C-29.62403996 246.86574735 -33.5650551 248.66978383 -37.5 250.5 C-44.0179631 253.56169555 -50.47873508 256.71620532 -56.90625 259.96289062 C-65.19511361 264.13238956 -73.60191946 268.05655348 -82 272 C-83.99231152 268.54399295 -84.67893413 265.21445369 -85.41015625 261.30859375 C-85.53827194 260.63149353 -85.66638763 259.95439331 -85.79838562 259.2567749 C-86.22607853 256.98481664 -86.6444772 254.71125592 -87.0625 252.4375 C-87.36402557 250.8213271 -87.66578959 249.20519866 -87.96777344 247.58911133 C-91.05782315 230.96969522 -93.97932399 214.31918111 -96.89086914 197.66772461 C-98.85624477 186.43056199 -100.86533381 175.20628212 -103 164 C-103.40891037 161.83523782 -103.8168294 159.67029008 -104.2247467 157.50534058 C-104.79307405 154.49056733 -105.363209 151.47613698 -105.93331909 148.46170044 C-106.38658776 146.06369528 -106.83894535 143.6655193 -107.29125977 141.26733398 C-108.69200882 133.84906576 -110.10398718 126.43372787 -111.56640625 119.02734375 C-111.7998877 117.83931152 -112.03336914 116.6512793 -112.27392578 115.42724609 C-112.70365841 113.24822656 -113.13793764 111.07009672 -113.57763672 108.89306641 C-113.76729004 107.92933105 -113.95694336 106.9655957 -114.15234375 105.97265625 C-114.31726318 105.15031494 -114.48218262 104.32797363 -114.65209961 103.48071289 C-115.05187856 100.63007859 -115.05663516 97.87482154 -115 95 C-114.0527002 94.57178955 -113.10540039 94.1435791 -112.12939453 93.70239258 C-108.56876086 92.09223568 -105.00931409 90.47946912 -101.45019531 88.8659668 C-99.91828446 88.17191017 -98.38606517 87.47853386 -96.85351562 86.78588867 C-85.20946998 81.5274571 -85.20946998 81.5274571 -73.78076172 75.8190918 C-72 75 -72 75 -70 75 C-69.67 76.32 -69.34 77.64 -69 79 C-68.34 79 -67.68 79 -67 79 C-66.505 77.02 -66.505 77.02 -66 75 C-65.34 75 -64.68 75 -64 75 C-64.37511719 74.23558594 -64.75023437 73.47117187 -65.13671875 72.68359375 C-72.71822893 56.81398428 -79.83722162 39.36605961 -74.375 21.6875 C-69.61966747 9.14009627 -61.04725889 -0.14492572 -49 -6 C-32.90499796 -12.53629091 -14.14501993 -9.71277231 0 0 Z " fill="#FCFCFC" transform="translate(148,70)"/>
<path d="M0 0 C1.2084407 0.08641251 2.41688141 0.17282501 3.66194153 0.26185608 C6.19916003 0.44411012 8.73624332 0.62825538 11.27319336 0.81420898 C15.14339756 1.09757324 19.0140256 1.37445231 22.88476562 1.65039062 C25.36070463 1.82904579 27.83661706 2.00806961 30.3125 2.1875 C32.03620064 2.31100075 32.03620064 2.31100075 33.79472351 2.43699646 C39.54356799 2.8608932 45.24545703 3.37859985 50.95703125 4.16015625 C51.90043747 9.11797468 52.84232949 14.07607783 53.78295898 19.03442383 C54.10157701 20.71288378 54.42057299 22.39127204 54.73999023 24.06958008 C55.82365138 29.76434741 56.89675743 35.46098699 57.95703125 41.16015625 C58.10702576 41.96463196 58.25702026 42.76910767 58.41156006 43.59796143 C58.84222373 45.92113725 59.26606448 48.24544689 59.6875 50.5703125 C59.81635086 51.26362167 59.94520172 51.95693085 60.07795715 52.67124939 C60.71143859 56.21124755 61.09792714 59.56319267 60.95703125 63.16015625 C59.63703125 63.16015625 58.31703125 63.16015625 56.95703125 63.16015625 C56.29703125 64.81015625 55.63703125 66.46015625 54.95703125 68.16015625 C55.56538818 68.47041748 56.17374512 68.78067871 56.80053711 69.1003418 C61.69883973 72.13739752 64.34136735 74.85884697 65.68925476 80.58818054 C66.40644987 84.36958672 66.9762792 88.16293507 67.51953125 91.97265625 C67.78563792 93.64007304 68.05598798 95.3068175 68.33032227 96.97290039 C68.76228115 99.60144691 69.1909336 102.23016583 69.6056366 104.86149597 C70.658641 111.52315874 71.8716765 118.14333425 73.16796875 124.76171875 C73.35385056 125.71259872 73.53973236 126.6634787 73.73124695 127.64317322 C74.46377107 131.3791481 75.19986995 135.11440345 75.9392395 138.84902954 C76.44997048 141.43987344 76.95233689 144.03221867 77.453125 146.625 C77.60586884 147.38700714 77.75861267 148.14901428 77.91598511 148.93411255 C78.77758197 153.42802405 79.10203099 157.58381386 78.95703125 162.16015625 C69.78942934 161.65668201 60.64608094 160.99073129 51.5 160.1875 C49.99567917 160.05572861 49.99567917 160.05572861 48.46096802 159.92129517 C44.30318455 159.55560598 40.1456277 159.18756675 35.98852539 158.81420898 C32.90937629 158.53855365 29.82974563 158.2688974 26.75 158 C25.36834908 157.87346291 25.36834908 157.87346291 23.95878601 157.74436951 C11.45603655 156.2504088 11.45603655 156.2504088 -0.42578125 159.22265625 C-1.81156372 159.91222412 -1.81156372 159.91222412 -3.2253418 160.61572266 C-4.19640869 161.12538574 -5.16747559 161.63504883 -6.16796875 162.16015625 C-8.34347308 163.25185411 -10.51927091 164.3429672 -12.6953125 165.43359375 C-13.86175293 166.0275293 -15.02819336 166.62146484 -16.22998047 167.23339844 C-22.61831412 170.47630316 -29.07239911 173.58648499 -35.51922607 176.7109375 C-37.69846958 177.76961109 -39.8741823 178.83525696 -42.04931641 179.90234375 C-43.40520371 180.56394499 -44.76115766 181.2254097 -46.1171875 181.88671875 C-47.03450401 182.33913437 -47.03450401 182.33913437 -47.97035217 182.8006897 C-51.58892049 184.55781632 -55.20130768 185.96984415 -59.04296875 187.16015625 C-59.21090439 186.21771812 -59.21090439 186.21771812 -59.38223267 185.25624084 C-60.80993921 177.24489036 -62.23874744 169.23373663 -63.66796875 161.22265625 C-63.89539764 159.94762238 -64.12282654 158.6725885 -64.35714722 157.35891724 C-67.31331609 140.78969082 -70.28087453 124.22282412 -73.32861328 107.67016602 C-74.33585404 102.17684142 -75.3191587 96.69852304 -76.04296875 91.16015625 C-74.06296875 90.17015625 -74.06296875 90.17015625 -72.04296875 89.16015625 C-73.33441853 86.16022896 -73.33441853 86.16022896 -75.04296875 83.16015625 C-76.03296875 82.83015625 -77.02296875 82.50015625 -78.04296875 82.16015625 C-79.35471708 75.11475845 -80.65344795 68.06705109 -81.94311523 61.01757812 C-82.38347096 58.61923823 -82.82681444 56.22144492 -83.27319336 53.82421875 C-83.91393945 50.38029758 -84.5439487 46.93455982 -85.171875 43.48828125 C-85.3739003 42.41523743 -85.5759256 41.3421936 -85.78407288 40.2366333 C-86.05446632 38.73553009 -86.05446632 38.73553009 -86.33032227 37.20410156 C-86.49242691 36.32473938 -86.65453156 35.4453772 -86.82154846 34.53936768 C-87.05216835 32.06130442 -86.968493 30.46715058 -86.04296875 28.16015625 C-83.85099911 26.8116797 -81.82786935 25.76232823 -79.4921875 24.7265625 C-78.81445282 24.41190536 -78.13671814 24.09724823 -77.43844604 23.77305603 C-75.20874496 22.74189315 -72.97021291 21.73179751 -70.73046875 20.72265625 C-69.18624664 20.01676351 -67.64254918 19.30972194 -66.09936523 18.6015625 C-63.73805037 17.51851911 -61.37614824 16.43695099 -59.01142883 15.36135864 C-53.94950318 13.05530112 -48.93451502 10.66980663 -43.94140625 8.21875 C-42.68692729 7.6099308 -41.43213332 7.00176019 -40.17700195 6.39428711 C-37.85818484 5.26840305 -35.54630502 4.12807509 -33.24291992 2.97094727 C-32.1882251 2.46619873 -31.13353027 1.9614502 -30.046875 1.44140625 C-29.14783447 0.99861328 -28.24879395 0.55582031 -27.32250977 0.09960938 C-18.68664658 -2.37420895 -8.84484787 -0.65275098 0 0 Z " fill="#FCFCFC" transform="translate(277.04296875,114.83984375)"/>
<path d="M0 0 C0.89662354 0.009104 1.79324707 0.01820801 2.71704102 0.02758789 C15.25601638 0.24876965 28.26291121 0.6685743 40.63549805 2.8125 C44.13348981 3.37406519 47.58125672 3.62848699 51.1171875 3.84765625 C51.79677521 3.89063339 52.47636292 3.93361053 53.17654419 3.97789001 C55.32586033 4.11315225 57.4754115 4.24414501 59.625 4.375 C61.09116353 4.46651374 62.5573096 4.55830785 64.0234375 4.65039062 C67.5987621 4.87433545 71.1743102 5.09445465 74.75 5.3125 C76.45738707 10.90946295 77.63611571 16.51504942 78.703125 22.265625 C78.8834729 23.22448105 79.0638208 24.1833371 79.24963379 25.17124939 C79.83682501 28.30098049 80.41866681 31.43167591 81 34.5625 C81.20274536 35.64802155 81.40549072 36.73354309 81.61437988 37.85195923 C84.01715978 50.71783712 86.34789536 63.58985537 88.5 76.5 C91.94142698 97.13435177 95.92046555 117.67345212 99.82410431 138.22426033 C100.38932481 141.20026797 100.95376723 144.17642306 101.51828003 147.152565 C101.90923454 149.21079641 102.30182522 151.26871062 102.69458008 153.32659912 C103.80835363 159.19122573 104.90402777 165.05843921 105.92675781 170.93969727 C106.1669162 172.31980736 106.1669162 172.31980736 106.41192627 173.72779846 C106.74688559 176.28868915 106.81132346 178.73311391 106.75 181.3125 C99.11867812 181.42553888 91.60763724 181.10279929 84.00390625 180.47265625 C82.91270981 180.38624374 81.82151337 180.29983124 80.69725037 180.21080017 C77.23532674 179.93627613 73.7738902 179.65616379 70.3125 179.375 C63.5532133 178.82879017 56.7940951 178.29081925 50.03051758 177.80029297 C46.08688829 177.5115803 42.16832572 177.14587218 38.2409668 176.68798828 C25.59036438 175.36292459 17.46609819 177.99269835 6.4375 184.0625 C4.92375503 184.85245533 3.40759907 185.63780648 1.88916016 186.41870117 C-1.11360322 187.96811313 -4.10460303 189.5370251 -7.08740234 191.12451172 C-12.76762408 194.13272325 -18.56050833 196.88613873 -24.375 199.625 C-25.26098877 200.04942383 -26.14697754 200.47384766 -27.05981445 200.91113281 C-28.68953622 201.69152278 -30.32338536 202.46337249 -31.96191406 203.22509766 C-33.47176543 203.94264759 -34.96462188 204.69725957 -36.43652344 205.48974609 C-46.30020831 210.53643663 -57.80073689 208.235768 -68.46875 207.21875 C-69.68848511 207.10776978 -70.90822021 206.99678955 -72.16491699 206.88244629 C-77.32765346 206.41253602 -82.48919794 205.93007386 -87.65087891 205.44873047 C-91.44394742 205.0968555 -95.23756697 204.75142642 -99.03125 204.40625 C-100.17847534 204.2968811 -101.32570068 204.18751221 -102.50769043 204.0748291 C-117.68978096 202.28385436 -117.68978096 202.28385436 -131.8125 206.75 C-133.17698231 207.49087125 -134.54293495 208.22903936 -135.91015625 208.96484375 C-136.61414551 209.35140137 -137.31813477 209.73795898 -138.04345703 210.13623047 C-141.87403996 212.17824735 -145.8150551 213.98228383 -149.75 215.8125 C-156.2679631 218.87419555 -162.72873508 222.02870532 -169.15625 225.27539062 C-177.44511361 229.44488956 -185.85191946 233.36905348 -194.25 237.3125 C-196.24231152 233.85649295 -196.92893413 230.52695369 -197.66015625 226.62109375 C-197.78827194 225.94399353 -197.91638763 225.26689331 -198.04838562 224.5692749 C-198.47607853 222.29731664 -198.8944772 220.02375592 -199.3125 217.75 C-199.61402557 216.1338271 -199.91578959 214.51769866 -200.21777344 212.90161133 C-203.30782315 196.28219522 -206.22932399 179.63168111 -209.14086914 162.98022461 C-211.10624477 151.74306199 -213.11533381 140.51878212 -215.25 129.3125 C-215.65891037 127.14773782 -216.0668294 124.98279008 -216.4747467 122.81784058 C-217.04307405 119.80306733 -217.613209 116.78863698 -218.18331909 113.77420044 C-218.63658776 111.37619528 -219.08894535 108.9780193 -219.54125977 106.57983398 C-220.94200882 99.16156576 -222.35398718 91.74622787 -223.81640625 84.33984375 C-224.0498877 83.15181152 -224.28336914 81.9637793 -224.52392578 80.73974609 C-224.95365841 78.56072656 -225.38793764 76.38259672 -225.82763672 74.20556641 C-226.01729004 73.24183105 -226.20694336 72.2780957 -226.40234375 71.28515625 C-226.56726318 70.46281494 -226.73218262 69.64047363 -226.90209961 68.79321289 C-227.30187856 65.94257859 -227.30663516 63.18732154 -227.25 60.3125 C-226.3027002 59.88428955 -225.35540039 59.4560791 -224.37939453 59.01489258 C-220.81876086 57.40473568 -217.25931409 55.79196912 -213.70019531 54.1784668 C-212.16828446 53.48441017 -210.63606517 52.79103386 -209.10351562 52.09838867 C-197.45946998 46.8399571 -197.45946998 46.8399571 -186.03076172 41.1315918 C-184.25 40.3125 -184.25 40.3125 -182.25 40.3125 C-179.23464725 44.33297033 -179.23464725 44.33297033 -179.28076172 47.27514648 C-180.81259448 50.49508211 -183.27017934 51.1709481 -186.4453125 52.66015625 C-187.07098114 52.95812607 -187.69664978 53.25609589 -188.34127808 53.56309509 C-190.34644682 54.51394283 -192.36034901 55.44443916 -194.375 56.375 C-195.70894047 57.00457457 -197.04228166 57.63542059 -198.375 58.26757812 C-204.2882509 61.06000515 -210.22983212 63.75923097 -216.25 66.3125 C-214.88119849 75.50838362 -213.33808399 84.66326885 -211.6875 93.8125 C-211.35588867 95.66488281 -211.35588867 95.66488281 -211.01757812 97.5546875 C-210.14159484 102.43501414 -210.14159484 102.43501414 -209.25 107.3125 C-209.10900879 108.22733154 -208.96801758 109.14216309 -208.82275391 110.0847168 C-208.43037236 112.54484443 -208.43037236 112.54484443 -205.96484375 114.11328125 C-205.04832031 114.61214844 -204.13179687 115.11101562 -203.1875 115.625 C-202.26839844 116.13675781 -201.34929687 116.64851563 -200.40234375 117.17578125 C-199.69207031 117.55089844 -198.98179687 117.92601562 -198.25 118.3125 C-198.85183749 120.33295442 -199.52306096 122.33361039 -200.25 124.3125 C-201.24 124.8075 -201.24 124.8075 -202.25 125.3125 C-204.375 124.375 -204.375 124.375 -206.25 123.3125 C-204.86798564 130.85926943 -203.4856006 138.40597089 -202.10277081 145.95259094 C-201.46034776 149.45859639 -200.81804191 152.96462321 -200.17602539 156.47070312 C-199.43411453 160.52220106 -198.691845 164.57363313 -197.94921875 168.625 C-197.76853631 169.6107646 -197.76853631 169.6107646 -197.58420372 170.61644363 C-196.2371771 177.96317728 -194.88367917 185.30851451 -193.5 192.6484375 C-192.47885149 198.0714193 -191.48275027 203.49645743 -190.5625 208.9375 C-190.43294922 209.67355469 -190.30339844 210.40960938 -190.16992188 211.16796875 C-189.47765613 215.2629587 -189.1124662 219.16028916 -189.25 223.3125 C-181.24004886 220.31883606 -173.67791611 216.62536306 -166.0625 212.75 C-163.59136453 211.50087821 -161.11827687 210.2556624 -158.64453125 209.01171875 C-158.02643585 208.70070221 -157.40834045 208.38968567 -156.77151489 208.06924438 C-148.03742031 203.68552761 -139.20620016 199.50259291 -130.37109375 195.32714844 C-128.27018554 194.3635631 -128.27018554 194.3635631 -126.45135498 193.2303009 C-123.67193917 192.07149173 -121.89140456 192.2775586 -118.90722656 192.61303711 C-117.30965515 192.77774002 -117.30965515 192.77774002 -115.67980957 192.94577026 C-114.54797241 193.06679108 -113.41613525 193.18781189 -112.25 193.3125 C-109.92990462 193.50982429 -107.60923235 193.7004596 -105.28808594 193.88500977 C-104.06772644 193.98503799 -102.84736694 194.08506622 -101.59002686 194.18812561 C-100.31766174 194.29233322 -99.04529663 194.39654083 -97.734375 194.50390625 C-96.3838902 194.61457106 -95.033406 194.72524319 -93.68292236 194.83592224 C-90.17153508 195.12367903 -86.66013979 195.41133793 -83.14874268 195.69897461 C-79.54837557 195.99391734 -75.94801627 196.28895517 -72.34765625 196.58398438 C-65.31511168 197.16024796 -58.28255862 197.73640787 -51.25 198.3125 C-52.79328386 188.27107444 -54.34264473 178.25635124 -56.4375 168.3125 C-58.15390201 160.02731136 -59.72813769 151.72812971 -61.2109375 143.3984375 C-61.56074165 141.45178479 -61.91075944 139.50517045 -62.26098633 137.55859375 C-62.78651417 134.63714261 -63.3076859 131.71527902 -63.81454468 128.79052734 C-64.29291373 126.03258121 -64.78758824 123.27797526 -65.28515625 120.5234375 C-65.49288162 119.28574112 -65.49288162 119.28574112 -65.70480347 118.02304077 C-66.69064647 112.67558932 -68.44743871 108.9582857 -71.25 104.3125 C-71.25 101.3125 -71.25 101.3125 -70.25 100.3125 C-69.95950012 94.29307235 -70.72258879 88.880742 -71.9375 83 C-72.30312933 81.16296829 -72.66765356 79.3257164 -73.03125 77.48828125 C-73.2271875 76.50553223 -73.423125 75.5227832 -73.625 74.51025391 C-75.01644489 67.39105655 -76.29082914 60.24917537 -77.58666992 53.11206055 C-77.88988159 51.45944214 -77.88988159 51.45944214 -78.19921875 49.7734375 C-78.37799561 48.79165527 -78.55677246 47.80987305 -78.7409668 46.79833984 C-79.221997 44.19736976 -79.221997 44.19736976 -80.25 41.3125 C-81.52617187 41.25191406 -82.80234375 41.19132812 -84.1171875 41.12890625 C-85.78647016 41.04450432 -87.45574037 40.95985614 -89.125 40.875 C-90.38763672 40.81602539 -90.38763672 40.81602539 -91.67578125 40.75585938 C-92.48144531 40.71396484 -93.28710938 40.67207031 -94.1171875 40.62890625 C-94.86081543 40.59224854 -95.60444336 40.55559082 -96.37060547 40.51782227 C-98.25 40.3125 -98.25 40.3125 -100.25 39.3125 C-99.70276317 35.93787285 -99.1951 34.23015 -97.25 31.3125 C-95.19120619 31.48012622 -93.1327479 31.66321163 -91.08251953 31.91479492 C-73.36026317 33.69980487 -58.76026632 24.32307852 -43.5390625 16.48876953 C-37.57587691 13.43606748 -31.48629035 10.68041185 -25.375 7.9375 C-23.52272321 7.09792828 -21.67109715 6.25691846 -19.8203125 5.4140625 C-18.61181641 4.87060181 -18.61181641 4.87060181 -17.37890625 4.31616211 C-15.05724251 3.25822953 -15.05724251 3.25822953 -12.1953125 1.54296875 C-8.07205004 -0.17961437 -4.42371992 -0.0910334 0 0 Z M-26.5625 18.1875 C-28.3525283 19.06801253 -30.14363179 19.94634258 -31.93579102 20.82250977 C-34.59333479 22.12175641 -37.25019864 23.42213027 -39.90312195 24.73078918 C-47.61757899 28.52938505 -55.43243774 32.05883654 -63.37036133 35.36865234 C-67.45957169 36.88074208 -67.45957169 36.88074208 -70.01353455 40.11663818 C-70.29223189 42.70467312 -70.00953678 44.79501279 -69.53735352 47.35644531 C-69.35709122 48.35718079 -69.17682892 49.35791626 -68.99110413 50.38897705 C-68.78907883 51.46202087 -68.58705353 52.5350647 -68.37890625 53.640625 C-68.1777269 54.74476746 -67.97654755 55.84890991 -67.76927185 56.98651123 C-67.12481653 60.51332406 -66.46880773 64.03787555 -65.8125 67.5625 C-65.37358648 69.95298513 -64.93542611 72.34360867 -64.49804688 74.734375 C-63.4240993 80.59538427 -62.34065787 86.45457863 -61.25 92.3125 C-60.26 92.6425 -59.27 92.9725 -58.25 93.3125 C-56.5625 96.375 -56.5625 96.375 -55.25 99.3125 C-57.23 100.3025 -57.23 100.3025 -59.25 101.3125 C-58.52021955 106.66104915 -57.62871392 111.96561046 -56.66772461 117.27709961 C-56.51152145 118.14618958 -56.3553183 119.01527954 -56.19438171 119.91070557 C-55.68155652 122.76230012 -55.16696243 125.61357236 -54.65234375 128.46484375 C-54.29493957 130.45022139 -53.93764646 132.43561902 -53.58045959 134.42103577 C-52.64286244 139.63094757 -51.70376165 144.84058723 -50.76434326 150.0501709 C-49.8048746 155.37247585 -48.84683406 160.69503784 -47.88867188 166.01757812 C-46.01050907 176.44947024 -44.13075704 186.88107531 -42.25 197.3125 C-38.76142226 196.16505353 -35.38700451 195.00941024 -32.0703125 193.4296875 C-31.31524414 193.07148926 -30.56017578 192.71329102 -29.78222656 192.34423828 C-28.9878418 191.96251465 -28.19345703 191.58079102 -27.375 191.1875 C-26.11381348 190.58591064 -26.11381348 190.58591064 -24.82714844 189.97216797 C-19.69123825 187.51286833 -14.58627218 184.99755715 -9.5 182.4375 C-8.20971894 181.79410332 -6.91935106 181.15088071 -5.62890625 180.5078125 C-3.24301276 179.31795556 -0.86576596 178.11455919 1.50439453 176.89355469 C4.51379553 175.34603248 7.53695984 173.82818579 10.5625 172.3125 C11.50512695 171.8189502 12.44775391 171.32540039 13.41894531 170.81689453 C14.33901367 170.36169434 15.25908203 169.90649414 16.20703125 169.4375 C17.01116455 169.02757812 17.81529785 168.61765625 18.64379883 168.1953125 C27.26457056 165.74520556 37.04074221 167.56776812 45.828125 168.40625 C47.03893738 168.51723022 48.24974976 168.62821045 49.49725342 168.74255371 C53.33195441 169.09449733 57.16600602 169.45294241 61 169.8125 C64.84832825 170.17141394 68.69677441 170.5288305 72.54559326 170.88244629 C74.93102509 171.10178262 77.31617524 171.32421097 79.70098877 171.5501709 C85.07520013 172.04594501 90.35262481 172.44835626 95.75 172.3125 C95.92090927 166.91842573 95.30470513 162.05853518 94.24609375 156.77734375 C94.08771027 155.9573288 93.92932678 155.13731384 93.7661438 154.29244995 C93.24676736 151.6102468 92.71807961 148.93000816 92.1875 146.25 C91.44210746 142.47197677 90.6997338 138.69338132 89.9609375 134.9140625 C89.77292068 133.9541188 89.58490387 132.99417511 89.39118958 132.00514221 C88.12564669 125.46625859 87.01336639 118.91455735 85.9765625 112.3359375 C85.55572708 109.7570546 85.1320845 107.17864861 84.70755005 104.60037231 C84.44640102 102.96401999 84.19849337 101.32549361 83.96456909 99.68502808 C82.62273635 88.95886782 82.62273635 88.95886782 76.02734375 80.76171875 C73.72555611 79.28777983 73.72555611 79.28777983 71.75 78.3125 C72.41 76.6625 73.07 75.0125 73.75 73.3125 C75.07 73.3125 76.39 73.3125 77.75 73.3125 C77.22742768 65.36372471 76.23340819 57.67003922 74.68359375 49.859375 C74.48524429 48.83314026 74.28689484 47.80690552 74.08253479 46.74957275 C73.45680366 43.51935847 72.82232164 40.29093867 72.1875 37.0625 C71.75787973 34.85297802 71.32883817 32.64334343 70.90039062 30.43359375 C69.85693588 25.05857803 68.80631989 19.68500139 67.75 14.3125 C50.56807873 12.84889831 33.38543794 11.38920676 16.1875 10.125 C15.08567383 10.04137207 13.98384766 9.95774414 12.84863281 9.87158203 C10.77617453 9.72290985 8.70220351 9.59373319 6.62719727 9.48632812 C3.75 9.3125 3.75 9.3125 1.21459961 8.95117188 C-8.9285274 7.97427435 -17.7890554 13.78408773 -26.5625 18.1875 Z " fill="#0A0A0A" transform="translate(260.25,104.6875)"/>
<path d="M0 0 C8.79825777 7.14259806 15.02601541 16.62955951 16.22143555 28.13037109 C16.76015302 38.72782822 16.05648399 48.08681723 12 58 C11.63793457 58.91313965 11.63793457 58.91313965 11.26855469 59.84472656 C5.83705185 73.44739592 -0.97162953 86.38755098 -9.828125 98.078125 C-13.01944359 102.37148167 -15.99198016 106.81145202 -18.96826172 111.25585938 C-22.03245246 115.77341674 -25.3654801 119.92794771 -29 124 C-32.41513348 122.86162217 -32.94140203 122.10098499 -35.00390625 119.2734375 C-35.57471924 118.49653564 -36.14553223 117.71963379 -36.73364258 116.91918945 C-37.33716553 116.07960693 -37.94068848 115.24002441 -38.5625 114.375 C-39.18729248 113.51414795 -39.81208496 112.6532959 -40.45581055 111.76635742 C-57.82990406 87.6939793 -78.32819009 59.08625641 -76 28 C-73.45648869 15.84928312 -66.73739404 5.63080902 -56.71875 -1.66015625 C-39.31552455 -12.86761315 -16.92948087 -11.62474099 0 0 Z " fill="#050505" transform="translate(148,70)"/>
<path d="M0 0 C6.35587087 3.75368123 10.75786192 9.51097695 12.73828125 16.6171875 C13.78351443 25.56626256 12.62061714 32.05240544 7.73828125 39.6171875 C7.16078125 40.5453125 6.58328125 41.4734375 5.98828125 42.4296875 C0.27029165 47.98884405 -6.16584031 50.34412894 -14.01171875 50.8671875 C-22.36255983 50.67917607 -28.33864085 47.60368152 -34.30859375 41.83203125 C-40.35201584 34.9787906 -40.91869441 28.12348205 -40.640625 19.14453125 C-39.85597543 11.84001001 -36.55735481 7.09888699 -31.234375 2.16015625 C-21.50335336 -5.45123691 -10.90095342 -5.00510702 0 0 Z " fill="#FAFAFA" transform="translate(132.26171875,83.3828125)"/>
<path d="M0 0 C1.25664978 2.90600261 2 4.79604584 2 8 C0.39967863 8.84069415 -1.20541171 9.67231505 -2.8125 10.5 C-3.70582031 10.9640625 -4.59914062 11.428125 -5.51953125 11.90625 C-8 13 -8 13 -11 13 C-11.66 10.69 -12.32 8.38 -13 6 C-11.21118264 4.99491199 -9.41885304 3.99607264 -7.625 3 C-6.62726563 2.443125 -5.62953125 1.88625 -4.6015625 1.3125 C-2 0 -2 0 0 0 Z " fill="#141414" transform="translate(151,233)"/>
<path d="M0 0 C1.25664978 2.90600261 2 4.79604584 2 8 C0.171875 9.640625 0.171875 9.640625 -2.25 11.25 C-3.43335938 12.06210938 -3.43335938 12.06210938 -4.640625 12.890625 C-7 14 -7 14 -9.171875 13.984375 C-11.80126313 12.56855062 -12.14724965 10.77143865 -13 8 C-11.2126038 6.66094733 -9.41995047 5.32890934 -7.625 4 C-6.62726563 3.2575 -5.62953125 2.515 -4.6015625 1.75 C-2 0 -2 0 0 0 Z " fill="#0B0B0B" transform="translate(254,152)"/>
<path d="M0 0 C1.41791408 0.45445964 2.83428046 0.91374944 4.25 1.375 C5.43335937 1.75785156 5.43335937 1.75785156 6.640625 2.1484375 C8.86627958 2.95173667 10.90931672 3.89711662 13 5 C12.67 7.31 12.34 9.62 12 12 C6.94744036 11.36843005 2.70406799 9.86540627 -2 8 C-1.34 5.36 -0.68 2.72 0 0 Z " fill="#0E0E0E" transform="translate(78,231)"/>
<path d="M0 0 C3.29680965 0.65784963 5.84117922 1.89420573 8.75 3.5625 C9.94882812 4.24505859 9.94882812 4.24505859 11.171875 4.94140625 C11.77515625 5.29074219 12.3784375 5.64007813 13 6 C11.125 10.75 11.125 10.75 10 13 C6.50155614 12.36610765 4.15913124 10.94822306 1.25 8.9375 C0.45078125 8.38964844 -0.3484375 7.84179688 -1.171875 7.27734375 C-2.07679688 6.64505859 -2.07679688 6.64505859 -3 6 C-2.01 4.02 -1.02 2.04 0 0 Z " fill="#131313" transform="translate(307,159)"/>
<path d="M0 0 C1.93784265 0.14120714 3.87526955 0.28812873 5.8125 0.4375 C7.43091797 0.55931641 7.43091797 0.55931641 9.08203125 0.68359375 C12 1 12 1 15 2 C14.125 6.75 14.125 6.75 13 9 C8.71 8.67 4.42 8.34 0 8 C0 5.36 0 2.72 0 0 Z " fill="#141414" transform="translate(274,147)"/>
<path d="M0 0 C4.51617599 -0.07654536 8.59085217 -0.10228696 13 1 C13 3.64 13 6.28 13 9 C10.8537974 8.85970581 8.70803782 8.71261836 6.5625 8.5625 C5.36753906 8.48128906 4.17257813 8.40007812 2.94140625 8.31640625 C0 8 0 8 -1 7 C-0.71269945 4.66055264 -0.38063221 2.3260857 0 0 Z " fill="#0F0F0F" transform="translate(108,241)"/>
<path d="M0 0 C1.32 1.65 2.64 3.3 4 5 C2.8004855 8.59854349 1.72074777 9.18616815 -1.375 11.25 C-2.16648438 11.79140625 -2.95796875 12.3328125 -3.7734375 12.890625 C-6 14 -6 14 -9 13 C-9.66 11.35 -10.32 9.7 -11 8 C-7.37 5.36 -3.74 2.72 0 0 Z " fill="#0F0F0F" transform="translate(175,217)"/>
<path d="M0 0 C3.78496138 1.51398455 4.0072198 2.0144396 6 6 C3.03 8.97 0.06 11.94 -3 15 C-4.65 13.68 -6.3 12.36 -8 11 C-6.63629701 8.00779732 -5.05091917 5.70973471 -2.875 3.25 C-2.33617187 2.63640625 -1.79734375 2.0228125 -1.2421875 1.390625 C-0.62730469 0.70226562 -0.62730469 0.70226562 0 0 Z " fill="#0A0A0A" transform="translate(224,174)"/>
<path d="M0 0 C1.2065625 0.0309375 1.2065625 0.0309375 2.4375 0.0625 C2.4375 0.7225 2.4375 1.3825 2.4375 2.0625 C3.0975 2.3925 3.7575 2.7225 4.4375 3.0625 C3.7775 3.0625 3.1175 3.0625 2.4375 3.0625 C2.7675 4.7125 3.0975 6.3625 3.4375 8.0625 C2.4475 7.7325 1.4575 7.4025 0.4375 7.0625 C0.4375 7.7225 0.4375 8.3825 0.4375 9.0625 C1.22125 9.145 2.005 9.2275 2.8125 9.3125 C5.4375 10.0625 5.4375 10.0625 6.75 12.125 C6.976875 12.764375 7.20375 13.40375 7.4375 14.0625 C6.4475 15.0525 5.4575 16.0425 4.4375 17.0625 C4.4375 15.7425 4.4375 14.4225 4.4375 13.0625 C3.90125 12.835625 3.365 12.60875 2.8125 12.375 C-0.34750863 10.62867944 -2.8301983 8.4222151 -5.5625 6.0625 C-3.26136364 0.07954545 -3.26136364 0.07954545 0 0 Z " fill="#0E0E0E" transform="translate(336.5625,176.9375)"/>
<path d="M0 0 C1.25664978 2.90600261 2 4.79604584 2 8 C-1.465 9.485 -1.465 9.485 -5 11 C-5.33 10.34 -5.66 9.68 -6 9 C-5.34 9 -4.68 9 -4 9 C-4.34786708 7.02463255 -4.34786708 7.02463255 -5 5 C-5.66 4.67 -6.32 4.34 -7 4 C-6.34 4 -5.68 4 -5 4 C-4.67 3.01 -4.34 2.02 -4 1 C-2 0 -2 0 0 0 Z " fill="#181818" transform="translate(151,233)"/>
<path d="M0 0 C3.63 1.98 7.26 3.96 11 6 C10.39816251 8.02045442 9.72693904 10.02111039 9 12 C8.01 12.495 8.01 12.495 7 13 C6.34 12.34 5.68 11.68 5 11 C5.33 10.67 5.66 10.34 6 10 C5.34 9.34 4.68 8.68 4 8 C4 7.01 4 6.02 4 5 C1.5609294 2.79857668 1.5609294 2.79857668 -1 1 C-0.67 0.67 -0.34 0.34 0 0 Z " fill="#141414" transform="translate(51,217)"/>
<path d="M0 0 C2.31 1.98 4.62 3.96 7 6 C5.68 6.99 4.36 7.98 3 9 C0.33333333 7.66666667 -2.33333333 6.33333333 -5 5 C-5 4.34 -5 3.68 -5 3 C-4.360625 2.87625 -3.72125 2.7525 -3.0625 2.625 C-2.0415625 2.315625 -2.0415625 2.315625 -1 2 C-0.67 1.34 -0.34 0.68 0 0 Z " fill="#0D0D0D" transform="translate(150,73)"/>
<path d="M0 0 C3.78611227 0.54087318 5.55400767 2.11722332 8 5 C8 5.66 8 6.32 8 7 C6.9275 6.62875 5.855 6.2575 4.75 5.875 C1.18370653 4.68508268 1.18370653 4.68508268 -1.4375 5.875 C-1.953125 6.24625 -2.46875 6.6175 -3 7 C-3 5.68 -3 4.36 -3 3 C-2.34 3 -1.68 3 -1 3 C-0.67 2.01 -0.34 1.02 0 0 Z " fill="#070707" transform="translate(219,120)"/>
<path d="M0 0 C2.97 0.99 5.94 1.98 9 3 C6.64046906 5.35953094 5.22104383 5.49141413 2 6 C1.67 6.99 1.34 7.98 1 9 C0.01 8.67 -0.98 8.34 -2 8 C-1.34 5.36 -0.68 2.72 0 0 Z " fill="#1C1C1C" transform="translate(78,231)"/>
<path d="M0 0 C0.33 0 0.66 0 1 0 C1.1953125 6.0546875 1.1953125 6.0546875 1 8 C0.34 8.66 -0.32 9.32 -1 10 C-3.0625 9.75 -3.0625 9.75 -5 9 C-5.33 8.34 -5.66 7.68 -6 7 C-5.34 7 -4.68 7 -4 7 C-3.67 5.02 -3.34 3.04 -3 1 C-2.34 1.33 -1.68 1.66 -1 2 C-0.67 1.34 -0.34 0.68 0 0 Z " fill="#F8F8F8" transform="translate(190,197)"/>
<path d="M0 0 C0.66 1.32 1.32 2.64 2 4 C2.99 3.01 3.98 2.02 5 1 C4.43628586 4.26954202 3.50037734 5.82575883 1 8 C-2.73639216 6.75453595 -3.18756513 5.36595047 -5 2 C-3.35 1.34 -1.7 0.68 0 0 Z " fill="#101010" transform="translate(118,186)"/>
<path d="M0 0 C1.27875 -0.061875 2.5575 -0.12375 3.875 -0.1875 C4.95394531 -0.23970703 4.95394531 -0.23970703 6.0546875 -0.29296875 C6.69664062 -0.19628906 7.33859375 -0.09960938 8 0 C10 3 10 3 10 6 C7 7 7 7 4.95703125 6.00390625 C4.24933594 5.52824219 3.54164063 5.05257812 2.8125 4.5625 C2.09707031 4.08941406 1.38164062 3.61632812 0.64453125 3.12890625 C0.10183594 2.75636719 -0.44085938 2.38382812 -1 2 C-0.67 1.34 -0.34 0.68 0 0 Z " fill="#EFEFEF" transform="translate(142,65)"/>
<path d="M0 0 C0.66 0.33 1.32 0.66 2 1 C1.25 3.4375 1.25 3.4375 0 6 C-2.125 6.8125 -2.125 6.8125 -4 7 C-4 7.66 -4 8.32 -4 9 C-3.34 9.66 -2.68 10.32 -2 11 C-3.65 10.67 -5.3 10.34 -7 10 C-7 10.66 -7 11.32 -7 12 C-7.66 12 -8.32 12 -9 12 C-7.54718935 6.67302761 -3.91888622 3.63597198 0 0 Z " fill="#E9E9E9" transform="translate(103,84)"/>
<path d="M0 0 C0.99 0 1.98 0 3 0 C3.66 1.65 4.32 3.3 5 5 C2.77810176 7.22189824 0.91517292 7.92598892 -2 9 C-1.125 2.25 -1.125 2.25 0 0 Z " fill="#ECECEC" transform="translate(82,145)"/>
<path d="M0 0 C0.33 0.66 0.66 1.32 1 2 C-0.32 3.32 -1.64 4.64 -3 6 C-3.33 4.68 -3.66 3.36 -4 2 C-2.68 1.34 -1.36 0.68 0 0 Z M-8 4 C-5.525 4.99 -5.525 4.99 -3 6 C-3.99 6.99 -4.98 7.98 -6 9 C-7.32 8.34 -8.64 7.68 -10 7 C-9.34 6.01 -8.68 5.02 -8 4 Z " fill="#030303" transform="translate(77,146)"/>
<path d="M0 0 C0.66 0 1.32 0 2 0 C3.65 2.97 5.3 5.94 7 9 C6.01 9.495 6.01 9.495 5 10 C5 9.34 5 8.68 5 8 C4.34 8 3.68 8 3 8 C3 8.66 3 9.32 3 10 C2.34 9.67 1.68 9.34 1 9 C1 7.35 1 5.7 1 4 C0.01 4.33 -0.98 4.66 -2 5 C-1.34 3.35 -0.68 1.7 0 0 Z " fill="#111111" transform="translate(92,117)"/>
<path d="M0 0 C0.66 0 1.32 0 2 0 C1.63265306 6.36734694 1.63265306 6.36734694 -1.4375 9.4375 C-4 11 -4 11 -6 11 C-6 9.68 -6 8.36 -6 7 C-4.01924973 5.63823419 -2.01920337 4.30406884 0 3 C0 2.01 0 1.02 0 0 Z " fill="#E2E2E2" transform="translate(178,221)"/>
<path d="M0 0 C-2.97 3.96 -2.97 3.96 -6 8 C-8 5 -8 5 -7.875 2.9375 C-7 1 -7 1 -5.125 -0.3125 C-3 -1 -3 -1 0 0 Z " fill="#E8E8E8" transform="translate(51,169)"/>
<path d="M0 0 C2.3125 -0.25 2.3125 -0.25 5 0 C6.8125 2 6.8125 2 8 4 C5 6 5 6 2 6 C1.34 4.02 0.68 2.04 0 0 Z " fill="#0E0E0E" transform="translate(138,240)"/>
<path d="M0 0 C1 3 1 3 0 6 C-1.9375 6.8125 -1.9375 6.8125 -4 7 C-4.66 6.34 -5.32 5.68 -6 5 C-2.25 1.125 -2.25 1.125 0 0 Z " fill="#F3F3F3" transform="translate(79,335)"/>
<path d="M0 0 C0.66 1.32 1.32 2.64 2 4 C-1.465 5.485 -1.465 5.485 -5 7 C-5.33 5.68 -5.66 4.36 -6 3 C-2.25 0 -2.25 0 0 0 Z " fill="#F1F1F1" transform="translate(206,122)"/>
<path d="M0 0 C0 3 0 3 -1 6 C-5.45714286 10 -5.45714286 10 -8 10 C-6.34908222 5.70761377 -3.26245434 3.1206085 0 0 Z " fill="#0E0E0E" transform="translate(89,70)"/>
<path d="M0 0 C0.66 0.33 1.32 0.66 2 1 C1.1875 3.4375 1.1875 3.4375 0 6 C-0.99 6.33 -1.98 6.66 -3 7 C-3.66 6.67 -4.32 6.34 -5 6 C-4.75 4.125 -4.75 4.125 -4 2 C-2.0625 0.6875 -2.0625 0.6875 0 0 Z " fill="#EEEEEE" transform="translate(234,304)"/>
<path d="M0 0 C0.99 0.99 1.98 1.98 3 3 C-0.3 4.32 -3.6 5.64 -7 7 C-6.67 6.01 -6.34 5.02 -6 4 C-5.34 4 -4.68 4 -4 4 C-4 3.34 -4 2.68 -4 2 C-2.68 2 -1.36 2 0 2 C0 1.34 0 0.68 0 0 Z " fill="#EEEEEE" transform="translate(111,306)"/>
<path d="M0 0 C3.16605307 2.11070205 4.19587357 3.73539027 6 7 C3.69 6.67 1.38 6.34 -1 6 C-1.33 4.68 -1.66 3.36 -2 2 C-1.34 2 -0.68 2 0 2 C0 1.34 0 0.68 0 0 Z " fill="#020202" transform="translate(246,289)"/>
<path d="M0 0 C1.65 0 3.3 0 5 0 C5.12375 0.639375 5.2475 1.27875 5.375 1.9375 C5.684375 2.9584375 5.684375 2.9584375 6 4 C6.66 4.33 7.32 4.66 8 5 C3.25 4.125 3.25 4.125 1 3 C0.67 3.66 0.34 4.32 0 5 C-0.66 4.67 -1.32 4.34 -2 4 C-1.34 2.68 -0.68 1.36 0 0 Z " fill="#E3E3E3" transform="translate(154,140)"/>
<path d="M0 0 C2.625 1.3125 2.625 1.3125 5 3 C5 3.66 5 4.32 5 5 C3.1875 5.6875 3.1875 5.6875 1 6 C-0.75 4.6875 -0.75 4.6875 -2 3 C-2 2.34 -2 1.68 -2 1 C-1.34 0.67 -0.68 0.34 0 0 Z " fill="#F4F4F4" transform="translate(334,186)"/>
<path d="M0 0 C-0.33 1.65 -0.66 3.3 -1 5 C-2.98 5 -4.96 5 -7 5 C-6.34 4.67 -5.68 4.34 -5 4 C-4.67 3.01 -4.34 2.02 -4 1 C-2 0 -2 0 0 0 Z " fill="#1F1F1F" transform="translate(151,233)"/>
<path d="M0 0 C5.66153846 1.47692308 5.66153846 1.47692308 7.375 4.125 C7.58125 4.74375 7.7875 5.3625 8 6 C4.12867972 5.42647107 1.91827204 3.51295648 -1 1 C-0.67 0.67 -0.34 0.34 0 0 Z " fill="#131313" transform="translate(132,82)"/>
<path d="M0 0 C0.33 0.66 0.66 1.32 1 2 C3.01669827 3.13350534 3.01669827 3.13350534 5 4 C3.68799596 5.35432675 2.35368596 6.68733482 1 8 C0.67 8 0.34 8 0 8 C0 5.36 0 2.72 0 0 Z " fill="#EBEBEB" transform="translate(121,242)"/>
<path d="M0 0 C0.66 0.66 1.32 1.32 2 2 C1.625 4.625 1.625 4.625 1 7 C-0.32 6.01 -1.64 5.02 -3 4 C-3.33 4.99 -3.66 5.98 -4 7 C-3.6875 4.625 -3.6875 4.625 -3 2 C-2.01 1.34 -1.02 0.68 0 0 Z " fill="#D9D9D9" transform="translate(205,203)"/>
<path d="M0 0 C0.66 0.66 1.32 1.32 2 2 C0.35 4.31 -1.3 6.62 -3 9 C-3.99 8.01 -4.98 7.02 -6 6 C-5.195625 5.38125 -4.39125 4.7625 -3.5625 4.125 C-0.96125481 2.25835959 -0.96125481 2.25835959 0 0 Z " fill="#161616" transform="translate(128,178)"/>
<path d="M0 0 C0.66 0.33 1.32 0.66 2 1 C2 1.66 2 2.32 2 3 C1.05125 3.309375 0.1025 3.61875 -0.875 3.9375 C-3.86080408 4.87394742 -3.86080408 4.87394742 -6 6 C-6 5.01 -6 4.02 -6 3 C-4.03533587 1.93224776 -2.03144641 0.93446535 0 0 Z " fill="#EFEFEF" transform="translate(151,241)"/>
<path d="M0 0 C1.65 1.65 3.3 3.3 5 5 C4.01 6.485 4.01 6.485 3 8 C1.68 7.01 0.36 6.02 -1 5 C-0.34 5 0.32 5 1 5 C0.67 3.35 0.34 1.7 0 0 Z " fill="#E6E6E6" transform="translate(110,185)"/>
<path d="M0 0 C0.33 0.66 0.66 1.32 1 2 C-0.3928213 4.7856426 -2.30426398 5.52376361 -5 7 C-5.99 7.33 -6.98 7.66 -8 8 C-6.49776416 3.79373966 -3.71449966 2.26099979 0 0 Z " fill="#1D1D1D" transform="translate(249,154)"/>
<path d="M0 0 C0.33 0.66 0.66 1.32 1 2 C1.66 2 2.32 2 3 2 C3.66 3.32 4.32 4.64 5 6 C2.03 5.505 2.03 5.505 -1 5 C-0.67 3.35 -0.34 1.7 0 0 Z " fill="#2D2D2D" transform="translate(161,139)"/>
<path d="M0 0 C3 2 3 2 4 4 C2.25 4.6875 2.25 4.6875 0 5 C-2.25 3.5625 -2.25 3.5625 -4 2 C-2.68 1.34 -1.36 0.68 0 0 Z " fill="#EAEAEA" transform="translate(251,115)"/>
<path d="M0 0 C0.33 0 0.66 0 1 0 C1 1.98 1 3.96 1 6 C0.01 6 -0.98 6 -2 6 C-2.33 4.35 -2.66 2.7 -3 1 C-2.01 1.495 -2.01 1.495 -1 2 C-0.67 1.34 -0.34 0.68 0 0 Z " fill="#E0E0E0" transform="translate(190,197)"/>
<path d="M0 0 C0.66 0 1.32 0 2 0 C3.25664978 2.90600261 4 4.79604584 4 8 C3.34 8 2.68 8 2 8 C1.01 5.69 0.02 3.38 -1 1 C-0.67 0.67 -0.34 0.34 0 0 Z " fill="#282828" transform="translate(252,152)"/>
<path d="M0 0 C3.465 1.98 3.465 1.98 7 4 C7 4.99 7 5.98 7 7 C3.63983107 5.87994369 2.30935087 4.62788203 0 2 C0 1.34 0 0.68 0 0 Z " fill="#191919" transform="translate(142,67)"/>
<path d="M0 0 C0.66 0 1.32 0 2 0 C2.33 2.31 2.66 4.62 3 7 C1.68 6.67 0.36 6.34 -1 6 C-0.67 4.02 -0.34 2.04 0 0 Z " fill="#E3E3E3" transform="translate(195,232)"/>
<path d="M0 0 C0.99 0.33 1.98 0.66 3 1 C-1.75 5.875 -1.75 5.875 -4 7 C-4.66 6.67 -5.32 6.34 -6 6 C-4.57248446 3.14496891 -2.60119854 1.79606566 0 0 Z " fill="#D8D8D8" transform="translate(225,184)"/>
<path d="M0 0 C0.763125 0.0825 1.52625 0.165 2.3125 0.25 C2.3125 0.91 2.3125 1.57 2.3125 2.25 C0.34783587 3.31775224 -1.65605359 4.31553465 -3.6875 5.25 C-4.3475 4.92 -5.0075 4.59 -5.6875 4.25 C-3.34903846 0.31153846 -3.34903846 0.31153846 0 0 Z " fill="#2A2A2A" transform="translate(336.6875,176.75)"/>
</svg>
