<?xml version="1.0" standalone="no"?>
<!DOCTYPE svg PUBLIC "-//W3C//DTD SVG 20010904//EN" "http://www.w3.org/TR/2001/REC-SVG-20010904/DTD/svg10.dtd">
<svg xmlns="http://www.w3.org/2000/svg" version="1.0" width="800.000000pt" height="800.000000pt" viewBox="0 0 800.000000 800.000000" preserveAspectRatio="xMidYMid meet" fill="#fe6a40">

<g transform="translate(0.000000,800.000000) scale(0.100000,-0.100000)" fill="#fe6a40" stroke="none">
<path d="M3395 6626 c-16 -8 -43 -27 -58 -43 -37 -40 -40 -68 -72 -573 -33 -532 -30 -507 -63 -515 -48 -11 -99 -52 -121 -97 -18 -37 -21 -63 -21 -156 l0 -112 -47 0 c-63 -1 -124 -29 -159 -76 l-29 -37 0 -230 0 -229 28 -24 c25 -22 37 -24 118 -24 l90 0 -3 -82 -3 -83 -93 -5 c-88 -5 -95 -7 -118 -34 l-25 -28 3 -222 3 -223 28 -36 c36 -48 77 -68 148 -74 l59 -6 2 -877 3 -876 24 -36 c13 -19 40 -46 59 -59 l36 -24 861 -3 861 -2 45 23 c29 16 54 40 74 72 l30 48 5 642 5 642 34 29 c19 15 44 51 57 79 l24 50 0 755 0 755 -24 51 c-13 28 -39 64 -59 80 l-35 29 -4 130 c-4 108 -8 137 -26 172 -26 50 -70 83 -131 99 l-46 11 0 54 c0 48 2 54 22 57 38 6 53 39 53 118 0 66 -2 74 -26 93 -24 19 -40 21 -149 21 -109 0 -125 -2 -149 -21 -24 -19 -26 -26 -26 -98 0 -81 8 -98 53 -114 13 -5 17 -18 17 -62 l0 -55 -170 0 -170 0 0 49 c0 46 2 50 29 56 16 3 39 17 52 31 22 24 24 33 24 141 0 113 0 115 -28 139 -28 24 -31 24 -232 24 l-203 0 -26 -31 c-24 -29 -26 -37 -26 -134 0 -96 2 -106 25 -133 14 -17 39 -33 55 -37 28 -6 30 -9 30 -56 l0 -49 -110 0 c-80 0 -112 3 -115 13 -2 6 -18 234 -35 505 -17 272 -36 506 -41 520 -14 37 -48 72 -86 88 -42 18 -188 18 -228 0z m1276 -1525 c39 -40 41 -97 3 -135 l-27 -26 -589 0 -590 0 -29 29 c-47 47 -34 127 25 151 11 5 281 9 599 9 l579 1 29 -29z m2 -499 c38 -40 37 -93 -2 -133 l-29 -29 -587 0 -587 0 -29 29 c-21 22 -29 39 -29 66 0 27 8 44 29 66 l29 29 589 0 589 0 27 -28z m-28 -476 c39 -17 55 -42 55 -86 0 -42 -15 -67 -50 -85 -25 -13 -109 -15 -590 -15 -598 0 -614 1 -639 48 -27 51 -3 120 49 141 15 6 243 10 583 10 459 1 564 -1 592 -13z m-4 -479 c24 -13 58 -43 74 -66 l30 -43 3 -189 c3 -177 2 -193 -18 -234 -23 -48 -66 -85 -119 -103 -24 -9 -185 -12 -558 -12 -571 0 -565 -1 -626 58 -61 57 -67 84 -67 277 0 191 6 218 56 269 67 67 52 66 645 66 l536 0 44 -23z m-1017 -883 c23 -24 26 -34 26 -96 0 -64 -3 -72 -29 -99 -29 -29 -31 -29 -139 -29 -104 0 -112 1 -141 26 -30 25 -31 29 -31 100 0 66 3 78 25 99 23 24 30 25 143 25 116 0 120 -1 146 -26z m578 -4 c29 -29 30 -34 26 -102 -3 -62 -7 -73 -31 -94 -26 -22 -36 -24 -143 -24 -109 0 -116 1 -139 25 -22 22 -25 33 -25 104 0 74 2 81 26 100 24 18 41 21 141 21 114 0 115 0 145 -30z m573 5 c22 -21 25 -33 25 -94 0 -38 -3 -77 -6 -86 -13 -33 -59 -45 -169 -45 -104 0 -107 1 -136 29 -26 27 -29 36 -29 94 0 56 4 70 26 96 l26 31 119 0 c114 0 121 -1 144 -25z m-1154 -444 c26 -27 29 -36 29 -97 0 -60 -3 -71 -27 -96 -26 -28 -28 -28 -145 -28 -116 0 -120 1 -143 26 -22 23 -25 36 -25 98 1 111 20 125 173 126 107 0 109 0 138 -29z m576 5 c26 -23 28 -29 28 -101 0 -72 -2 -78 -28 -101 -26 -22 -36 -24 -140 -24 -129 0 -151 9 -166 68 -15 54 1 141 29 164 18 15 41 18 136 18 105 0 115 -2 141 -24z m578 -1 c22 -21 25 -33 25 -100 0 -67 -3 -79 -25 -100 -23 -24 -30 -25 -144 -25 l-119 0 -26 31 c-22 26 -26 40 -26 96 0 58 3 67 29 94 29 29 31 29 146 29 110 0 117 -1 140 -25z"/>
</g>
</svg>
